<svg width="214" height="122" viewBox="0 0 214 122" fill="none" 
     xmlns="http://www.w3.org/2000/svg"
     id="Archimede-method-svg">
<g clip-path="url(#clip0_101_264)">
<line class="line-1" x1="8" y1="112.35" x2="208" y2="112.35" stroke="#0000FF" stroke-width="1.3" stroke-dasharray="2 2"/>
<line class="line-1" x1="107.569" y1="112.254" x2="57.569" y2="27.2535" stroke="#0000FF" stroke-dasharray="2 2"/>
<line class="line-1" x1="158.428" y1="27.2497" x2="109.433" y2="112.25" stroke="#0000FF" stroke-dasharray="2 2"/>
<line class="line-2" x1="108.5" y1="27" x2="108.5" y2="113" stroke="black" stroke-dasharray="2 2"/>
<line class="line-3" x1="108.5" y1="13" x2="108.5" y2="27" stroke="#318C31" stroke-dasharray="2 2"/>
<line class="line-4" x1="157.863" y1="27.4808" x2="108.863" y2="13.4808" stroke="#FF0000" stroke-dasharray="2 2"/>
<line class="line-4" x1="108.135" y1="13.4815" x2="58.1348" y2="27.4795" stroke="#FF0000" stroke-dasharray="2 2"/>
<path class="num-1" d="M142.877 69.6562V75H141.793V68.6602H142.848L142.877 69.6562ZM144.857 68.625L144.852 69.6328C144.762 69.6133 144.676 69.6016 144.594 69.5977C144.516 69.5898 144.426 69.5859 144.324 69.5859C144.074 69.5859 143.854 69.625 143.662 69.7031C143.471 69.7812 143.309 69.8906 143.176 70.0312C143.043 70.1719 142.938 70.3398 142.859 70.5352C142.785 70.7266 142.736 70.9375 142.713 71.168L142.408 71.3438C142.408 70.9609 142.445 70.6016 142.52 70.2656C142.598 69.9297 142.717 69.6328 142.877 69.375C143.037 69.1133 143.24 68.9102 143.486 68.7656C143.736 68.6172 144.033 68.543 144.377 68.543C144.455 68.543 144.545 68.5527 144.646 68.5723C144.748 68.5879 144.818 68.6055 144.857 68.625Z" fill="#0000FF"/>
<path class="num-1" d="M112.07 19V25H111.348V19H112.07ZM111.898 22.7266L111.598 22.7148C111.6 22.4258 111.643 22.1589 111.727 21.9141C111.81 21.6667 111.927 21.4518 112.078 21.2695C112.229 21.0872 112.409 20.9466 112.617 20.8477C112.828 20.7461 113.061 20.6953 113.316 20.6953C113.525 20.6953 113.712 20.724 113.879 20.7812C114.046 20.8359 114.188 20.9245 114.305 21.0469C114.424 21.1693 114.516 21.3281 114.578 21.5234C114.641 21.7161 114.672 21.9518 114.672 22.2305V25H113.945V22.2227C113.945 22.0013 113.913 21.8242 113.848 21.6914C113.783 21.556 113.688 21.4583 113.562 21.3984C113.438 21.3359 113.284 21.3047 113.102 21.3047C112.922 21.3047 112.758 21.3424 112.609 21.418C112.464 21.4935 112.337 21.5977 112.23 21.7305C112.126 21.8633 112.044 22.0156 111.984 22.1875C111.927 22.3568 111.898 22.5365 111.898 22.7266Z" fill="#318C31"/>
<path class="num-2" d="M73.877 69.6562V75H72.793V68.6602H73.8477L73.877 69.6562ZM75.8574 68.625L75.8516 69.6328C75.7617 69.6133 75.6758 69.6016 75.5938 69.5977C75.5156 69.5898 75.4258 69.5859 75.3242 69.5859C75.0742 69.5859 74.8535 69.625 74.6621 69.7031C74.4707 69.7812 74.3086 69.8906 74.1758 70.0312C74.043 70.1719 73.9375 70.3398 73.8594 70.5352C73.7852 70.7266 73.7363 70.9375 73.7129 71.168L73.4082 71.3438C73.4082 70.9609 73.4453 70.6016 73.5195 70.2656C73.5977 69.9297 73.7168 69.6328 73.877 69.375C74.0371 69.1133 74.2402 68.9102 74.4863 68.7656C74.7363 68.6172 75.0332 68.543 75.377 68.543C75.4551 68.543 75.5449 68.5527 75.6465 68.5723C75.748 68.5879 75.8184 68.6055 75.8574 68.625Z" fill="#0000FF"/>
<path class="num-3" d="M85.0635 38.2334V39H81.5088V38.2334H85.0635ZM81.6943 31.8906V39H80.752V31.8906H81.6943ZM89.1504 31.8906L86.1865 39.6104H85.4102L88.3789 31.8906H89.1504ZM94.6973 38.2578V39H90.0439V38.3506L92.373 35.7578C92.6595 35.4388 92.8809 35.1686 93.0371 34.9473C93.1966 34.7227 93.3073 34.5225 93.3691 34.3467C93.4342 34.1676 93.4668 33.9854 93.4668 33.7998C93.4668 33.5654 93.418 33.3538 93.3203 33.165C93.2259 32.973 93.0859 32.82 92.9004 32.7061C92.7148 32.5921 92.4902 32.5352 92.2266 32.5352C91.9108 32.5352 91.6471 32.597 91.4355 32.7207C91.2272 32.8411 91.071 33.0104 90.9668 33.2285C90.8626 33.4466 90.8105 33.6973 90.8105 33.9805H89.9072C89.9072 33.5801 89.9951 33.2139 90.1709 32.8818C90.3467 32.5498 90.6071 32.2861 90.9521 32.0908C91.2972 31.8923 91.722 31.793 92.2266 31.793C92.6758 31.793 93.0599 31.8727 93.3789 32.0322C93.6979 32.1885 93.9421 32.4098 94.1113 32.6963C94.2839 32.9795 94.3701 33.3115 94.3701 33.6924C94.3701 33.9007 94.3343 34.1123 94.2627 34.3271C94.1943 34.5387 94.0983 34.7503 93.9746 34.9619C93.8542 35.1735 93.7126 35.3818 93.5498 35.5869C93.3903 35.792 93.2194 35.9938 93.0371 36.1924L91.1328 38.2578H94.6973Z" fill="black"/>
<path class="num-4" d="M143.94 14.2334V15H140.386V14.2334H143.94ZM140.571 7.89062V15H139.629V7.89062H140.571ZM145.796 7.5V8.125C145.796 8.32031 145.762 8.52702 145.693 8.74512C145.628 8.95996 145.532 9.16829 145.405 9.37012C145.278 9.56868 145.125 9.74284 144.946 9.89258L144.429 9.53613C144.582 9.32129 144.697 9.10156 144.775 8.87695C144.857 8.64909 144.897 8.40332 144.897 8.13965V7.5H145.796Z" fill="#FF0000"/>
<path class="num-4" d="M83.9404 14.2334V15H80.3857V14.2334H83.9404ZM80.5713 7.89062V15H79.6289V7.89062H80.5713ZM85.7959 7.5V8.125C85.7959 8.32031 85.7617 8.52702 85.6934 8.74512C85.6283 8.95996 85.5322 9.16829 85.4053 9.37012C85.2783 9.56868 85.1253 9.74284 84.9463 9.89258L84.4287 9.53613C84.5817 9.32129 84.6973 9.10156 84.7754 8.87695C84.8568 8.64909 84.8975 8.40332 84.8975 8.13965V7.5H85.7959Z" fill="#FF0000"/>
<path class="num-3" d="M130.063 38.2334V39H126.509V38.2334H130.063ZM126.694 31.8906V39H125.752V31.8906H126.694ZM134.15 31.8906L131.187 39.6104H130.41L133.379 31.8906H134.15ZM139.697 38.2578V39H135.044V38.3506L137.373 35.7578C137.66 35.4388 137.881 35.1686 138.037 34.9473C138.197 34.7227 138.307 34.5225 138.369 34.3467C138.434 34.1676 138.467 33.9854 138.467 33.7998C138.467 33.5654 138.418 33.3538 138.32 33.165C138.226 32.973 138.086 32.82 137.9 32.7061C137.715 32.5921 137.49 32.5352 137.227 32.5352C136.911 32.5352 136.647 32.597 136.436 32.7207C136.227 32.8411 136.071 33.0104 135.967 33.2285C135.863 33.4466 135.811 33.6973 135.811 33.9805H134.907C134.907 33.5801 134.995 33.2139 135.171 32.8818C135.347 32.5498 135.607 32.2861 135.952 32.0908C136.297 31.8923 136.722 31.793 137.227 31.793C137.676 31.793 138.06 31.8727 138.379 32.0322C138.698 32.1885 138.942 32.4098 139.111 32.6963C139.284 32.9795 139.37 33.3115 139.37 33.6924C139.37 33.9007 139.334 34.1123 139.263 34.3271C139.194 34.5387 139.098 34.7503 138.975 34.9619C138.854 35.1735 138.713 35.3818 138.55 35.5869C138.39 35.792 138.219 35.9938 138.037 36.1924L136.133 38.2578H139.697Z" fill="black"/>
<circle cx="108" cy="113" r="99.5" stroke="black"/>
<path class="hex" d="M58.2887 199.103L8.57735 113L58.2887 26.8975H157.711L207.423 113L157.711 199.103H58.2887Z" stroke="black"/>
</g>
<defs>
<clipPath id="clip0_101_264">
<rect width="214" height="122" fill="white"/>
</clipPath>
</defs>
</svg>
