<svg width="800" height="590" viewBox="0 0 800 590" fill="none" xmlns="http://www.w3.org/2000/svg">
<g id="Compute-Pi-svg">
<ellipse id="Plate" cx="400" cy="400.178" rx="400" ry="189.822" fill="#8E91B1"/>
<g id="Apple-Tree">
<g id="Falling-Apple">
<path d="M128.181 259.504C125.858 258.542 123.301 259.005 121.48 260.491C119.66 259.005 117.102 258.542 114.779 259.504C111.412 260.898 109.814 264.758 111.208 268.124L115.257 277.9C116.078 279.881 118.349 280.822 120.331 280.001C120.767 279.821 121.153 279.569 121.48 279.267C121.808 279.569 122.194 279.821 122.63 280.001C124.611 280.822 126.882 279.881 127.703 277.9L131.752 268.124C133.147 264.758 131.548 260.898 128.181 259.504Z" fill="#F23E6D"/>
<g>
<path d="M118.559 275.755C118.946 275.755 119.261 275.44 119.261 275.053C119.261 274.665 118.946 274.35 118.559 274.35C118.171 274.35 117.856 274.665 117.856 275.053C117.856 275.44 118.171 275.755 118.559 275.755Z" fill="#3E0412"/>
<path d="M127.827 267.516C128.214 267.516 128.529 267.202 128.529 266.814C128.529 266.426 128.214 266.112 127.827 266.112C127.439 266.112 127.125 266.426 127.125 266.814C127.125 267.202 127.439 267.516 127.827 267.516Z" fill="#3E0412"/>
<path d="M125.112 265.186C125.499 265.186 125.814 264.872 125.814 264.484C125.814 264.096 125.499 263.782 125.112 263.782C124.724 263.782 124.41 264.096 124.41 264.484C124.41 264.872 124.724 265.186 125.112 265.186Z" fill="#3E0412"/>
<path d="M132.401 262.806C131.655 261.004 130.252 259.601 128.45 258.855C127.557 258.485 126.619 258.298 125.66 258.298C124.443 258.298 123.245 258.606 122.182 259.18V256.746C122.182 256.358 121.868 256.044 121.48 256.044C121.092 256.044 120.778 256.358 120.778 256.746V259.18C119.715 258.606 118.518 258.298 117.301 258.298C116.342 258.298 115.403 258.485 114.51 258.855C112.709 259.601 111.306 261.004 110.56 262.806C109.813 264.607 109.813 266.592 110.56 268.393L114.609 278.169C115.321 279.889 116.985 281 118.846 281C119.449 281 120.039 280.882 120.599 280.65C120.912 280.52 121.207 280.359 121.48 280.167C121.754 280.359 122.049 280.521 122.361 280.65C122.922 280.882 123.512 281 124.114 281C125.976 281 127.639 279.889 128.352 278.169L132.401 268.393C133.147 266.592 133.147 264.607 132.401 262.806ZM131.104 267.856L127.054 277.631C126.56 278.825 125.406 279.596 124.114 279.596C123.697 279.596 123.288 279.514 122.899 279.353C122.549 279.208 122.232 279.005 121.957 278.751C121.822 278.627 121.651 278.564 121.48 278.564C121.309 278.564 121.138 278.627 121.004 278.751C120.729 279.005 120.412 279.208 120.062 279.353C119.673 279.514 119.264 279.596 118.846 279.596C117.555 279.596 116.401 278.825 115.906 277.631L111.857 267.856C111.255 266.401 111.255 264.798 111.857 263.343C112.46 261.888 113.593 260.755 115.048 260.153C115.77 259.854 116.528 259.702 117.301 259.702C118.657 259.702 119.984 260.175 121.037 261.034C121.069 261.06 121.1 261.081 121.134 261.101C121.136 261.102 121.138 261.103 121.14 261.105C121.172 261.122 121.205 261.137 121.24 261.149C121.245 261.151 121.25 261.153 121.255 261.155C121.287 261.166 121.321 261.175 121.356 261.181C121.362 261.182 121.368 261.183 121.374 261.184C121.408 261.189 121.444 261.193 121.481 261.193C121.517 261.193 121.553 261.189 121.588 261.184C121.594 261.183 121.599 261.182 121.605 261.181C121.64 261.175 121.674 261.166 121.707 261.155C121.712 261.153 121.717 261.151 121.722 261.149C121.756 261.137 121.789 261.122 121.821 261.105C121.823 261.103 121.825 261.102 121.827 261.101C121.861 261.082 121.893 261.06 121.922 261.036C122.978 260.175 124.304 259.702 125.66 259.702C126.434 259.702 127.192 259.854 127.913 260.153C129.368 260.755 130.501 261.888 131.104 263.343C131.707 264.798 131.706 266.401 131.104 267.856Z" fill="#3E0412"/>
<path d="M110.705 259.32C111.092 259.32 111.407 259.006 111.407 258.618V237.702C111.407 237.314 111.092 237 110.705 237C110.317 237 110.002 237.314 110.002 237.702V258.618C110.002 259.006 110.317 259.32 110.705 259.32Z" fill="#3E0412"/>
<path d="M116.092 248.546C116.48 248.546 116.795 248.232 116.795 247.844V237.702C116.795 237.314 116.48 237 116.092 237C115.705 237 115.39 237.314 115.39 237.702V247.844C115.39 248.232 115.705 248.546 116.092 248.546Z" fill="#3E0412"/>
<path d="M116.092 256.972C116.48 256.972 116.795 256.658 116.795 256.27V250.653C116.795 250.265 116.48 249.951 116.092 249.951C115.705 249.951 115.39 250.265 115.39 250.653V256.27C115.39 256.658 115.705 256.972 116.092 256.972Z" fill="#3E0412"/>
<path d="M121.48 254.639C121.868 254.639 122.182 254.325 122.182 253.937V237.702C122.182 237.314 121.868 237 121.48 237C121.093 237 120.778 237.314 120.778 237.702V253.937C120.778 254.325 121.093 254.639 121.48 254.639Z" fill="#3E0412"/>
<path d="M126.868 256.972C127.256 256.972 127.57 256.658 127.57 256.27V237.702C127.57 237.314 127.256 237 126.868 237C126.481 237 126.166 237.314 126.166 237.702V256.27C126.166 256.658 126.481 256.972 126.868 256.972Z" fill="#3E0412"/>
<path d="M132.256 244.021C132.644 244.021 132.958 243.707 132.958 243.319V237.702C132.958 237.314 132.644 237 132.256 237C131.868 237 131.554 237.314 131.554 237.702V243.319C131.554 243.707 131.868 244.021 132.256 244.021Z" fill="#3E0412"/>
<path d="M132.256 259.32C132.644 259.32 132.958 259.006 132.958 258.618V246.128C132.958 245.74 132.644 245.426 132.256 245.426C131.868 245.426 131.554 245.74 131.554 246.128V258.618C131.554 259.006 131.868 259.32 132.256 259.32Z" fill="#3E0412"/>
</g>
</g>
<g id="Tree">
<path id="XMLID_1316_" d="M187.853 247.325C186.853 247.59 185.841 247.804 184.818 247.967C184.72 247.982 184.622 248.001 184.524 248.015C184.289 248.05 184.054 248.08 183.817 248.11C183.608 248.136 183.399 248.162 183.189 248.184C182.988 248.205 182.788 248.224 182.587 248.241C182.32 248.264 182.053 248.282 181.785 248.298C181.626 248.307 181.467 248.318 181.307 248.325C180.873 248.344 180.437 248.356 180 248.356C179.562 248.356 179.127 248.344 178.692 248.325C178.533 248.319 178.374 248.307 178.214 248.298C177.946 248.282 177.679 248.264 177.412 248.241C177.211 248.224 177.011 248.205 176.81 248.184C176.6 248.162 176.391 248.136 176.182 248.11C175.946 248.08 175.71 248.05 175.475 248.015C175.377 248.001 175.279 247.982 175.182 247.967C174.159 247.804 173.147 247.589 172.146 247.325C172.118 247.318 172.09 247.311 172.063 247.304C171.707 247.209 171.353 247.108 171 247.001V309H189V247C188.647 247.107 188.293 247.208 187.937 247.303C187.909 247.311 187.881 247.318 187.853 247.325Z" fill="#A78966"/>
<path id="XMLID_1324_" d="M282.179 194.288C282.179 185.112 276.637 177.234 268.718 173.81C268.767 173.208 268.798 172.601 268.798 171.986C268.798 159.668 258.813 149.683 246.496 149.683C246.496 137.366 236.511 127.381 224.194 127.381C220.432 127.381 216.889 128.317 213.78 129.962C205.598 120.205 193.319 114 179.59 114V247.813C180.023 247.813 180.455 247.805 180.885 247.792C181.044 247.788 181.201 247.78 181.36 247.774C181.625 247.764 181.89 247.751 182.154 247.736C182.353 247.725 182.552 247.712 182.751 247.699C182.959 247.684 183.167 247.667 183.374 247.649C183.608 247.63 183.842 247.61 184.075 247.587C184.172 247.577 184.269 247.565 184.366 247.555C185.379 247.447 186.383 247.305 187.375 247.13C187.402 247.125 187.43 247.121 187.457 247.116C187.81 247.053 188.161 246.987 188.511 246.915C192.867 246.031 196.994 244.516 200.789 242.462C204.686 245.795 209.743 247.813 215.273 247.813C223.897 247.813 231.373 242.914 235.084 235.75C238.423 237.744 242.325 238.892 246.496 238.892C258.813 238.892 268.798 228.907 268.798 216.59C268.798 215.975 268.767 215.368 268.718 214.765C276.637 211.342 282.179 203.463 282.179 194.288ZM210.813 225.511C203.422 225.511 197.431 219.52 197.431 212.129C197.431 207.202 201.425 203.208 206.352 203.208C207.979 203.208 209.5 203.651 210.813 204.411C212.126 203.651 213.646 203.208 215.273 203.208C220.2 203.208 224.194 207.202 224.194 212.129C224.194 219.52 218.203 225.511 210.813 225.511ZM210.813 167.525C203.422 167.525 197.431 161.534 197.431 154.144C197.431 149.217 201.425 145.223 206.352 145.223C207.979 145.223 209.5 145.665 210.813 146.426C212.126 145.665 213.646 145.223 215.273 145.223C220.2 145.223 224.194 149.217 224.194 154.144C224.194 161.534 218.203 167.525 210.813 167.525ZM242.036 203.208C234.645 203.208 228.654 197.218 228.654 189.827C228.654 184.9 232.648 180.906 237.575 180.906C239.202 180.906 240.723 181.349 242.036 182.109C243.349 181.349 244.869 180.906 246.496 180.906C251.423 180.906 255.417 184.9 255.417 189.827C255.417 197.218 249.426 203.208 242.036 203.208Z" fill="#317F46"/>
<path id="XMLID_1335_" d="M171.805 247.13C172.797 247.305 173.801 247.447 174.814 247.555C174.911 247.565 175.008 247.577 175.104 247.587C175.337 247.61 175.571 247.63 175.805 247.649C176.012 247.667 176.22 247.684 176.428 247.699C176.627 247.712 176.826 247.725 177.025 247.736C177.289 247.752 177.554 247.764 177.819 247.774C177.977 247.78 178.135 247.787 178.294 247.792C178.724 247.805 179.156 247.813 179.59 247.813V114C165.86 114 153.581 120.205 145.399 129.962C142.29 128.317 138.748 127.381 134.986 127.381C122.668 127.381 112.683 137.366 112.683 149.683C100.366 149.683 90.3813 159.668 90.3813 171.986C90.3813 172.601 90.4129 173.208 90.4616 173.81C82.543 177.234 77 185.112 77 194.288C77 203.463 82.543 211.342 90.4616 214.765C90.4129 215.368 90.3813 215.975 90.3813 216.59C90.3813 228.907 100.366 238.892 112.683 238.892C116.855 238.892 120.757 237.744 124.096 235.75C127.806 242.914 135.282 247.813 143.906 247.813C149.437 247.813 154.493 245.795 158.391 242.462C162.185 244.516 166.313 246.03 170.669 246.915C171.019 246.986 171.37 247.053 171.722 247.116C171.75 247.12 171.778 247.125 171.805 247.13ZM117.144 198.748C109.753 198.748 103.763 192.757 103.763 185.367C103.763 180.44 107.756 176.446 112.683 176.446C114.31 176.446 115.831 176.888 117.144 177.649C118.457 176.888 119.978 176.446 121.604 176.446C126.531 176.446 130.525 180.44 130.525 185.367C130.525 192.757 124.534 198.748 117.144 198.748ZM148.367 221.05C140.976 221.05 134.986 215.059 134.986 207.669C134.986 202.742 138.979 198.748 143.906 198.748C145.533 198.748 147.054 199.191 148.367 199.951C149.68 199.191 151.2 198.748 152.827 198.748C157.754 198.748 161.748 202.742 161.748 207.669C161.748 215.059 155.757 221.05 148.367 221.05Z" fill="#3FA45A"/>
<path id="XMLID_1339_" d="M152.827 198.748C151.2 198.748 149.68 199.191 148.367 199.951V221.05C155.757 221.05 161.748 215.059 161.748 207.669C161.748 202.742 157.754 198.748 152.827 198.748Z" fill="#FF728B"/>
<path id="XMLID_1340_" d="M143.906 198.748C138.979 198.748 134.985 202.742 134.985 207.669C134.985 215.059 140.976 221.05 148.367 221.05V199.951C147.054 199.191 145.533 198.748 143.906 198.748Z" fill="#FFA5B5"/>
<path id="XMLID_1341_" d="M121.604 176.446C119.978 176.446 118.457 176.888 117.144 177.649V198.748C124.534 198.748 130.525 192.757 130.525 185.367C130.525 180.44 126.531 176.446 121.604 176.446Z" fill="#FF728B"/>
<path id="XMLID_1342_" d="M112.683 176.446C107.756 176.446 103.763 180.44 103.763 185.367C103.763 192.757 109.753 198.748 117.144 198.748V177.649C115.831 176.888 114.31 176.446 112.683 176.446Z" fill="#FFA5B5"/>
<path id="XMLID_1343_" d="M215.273 203.208C213.646 203.208 212.126 203.651 210.813 204.411V225.511C218.203 225.511 224.194 219.52 224.194 212.129C224.194 207.202 220.2 203.208 215.273 203.208Z" fill="#FF7956"/>
<path id="XMLID_1344_" d="M206.352 203.208C201.425 203.208 197.431 207.202 197.431 212.129C197.431 219.52 203.422 225.511 210.813 225.511V204.411C209.5 203.651 207.979 203.208 206.352 203.208Z" fill="#FF9478"/>
<path id="XMLID_1345_" d="M246.496 180.906C244.869 180.906 243.349 181.349 242.036 182.109V203.208C249.426 203.208 255.417 197.218 255.417 189.827C255.417 184.9 251.423 180.906 246.496 180.906Z" fill="#FF7956"/>
<path id="XMLID_1346_" d="M237.575 180.906C232.648 180.906 228.654 184.9 228.654 189.827C228.654 197.218 234.645 203.208 242.036 203.208V182.109C240.723 181.349 239.202 180.906 237.575 180.906Z" fill="#FF9478"/>
<path id="XMLID_1347_" d="M215.273 145.223C213.646 145.223 212.126 145.665 210.813 146.426V167.525C218.203 167.525 224.194 161.534 224.194 154.144C224.194 149.217 220.2 145.223 215.273 145.223Z" fill="#FF7956"/>
<path id="XMLID_1348_" d="M206.352 145.223C201.425 145.223 197.431 149.217 197.431 154.144C197.431 161.534 203.422 167.525 210.813 167.525V146.426C209.5 145.665 207.979 145.223 206.352 145.223Z" fill="#FF9478"/>
</g>
</g>
<g id="Slot-Machine">
<path d="M701.891 250.189C700.917 250.189 700.128 250.978 700.128 251.951V278.968H694.418C693.444 278.968 692.655 279.757 692.655 280.73C692.655 281.704 693.444 282.492 694.418 282.492H701.891C702.865 282.492 703.655 281.704 703.655 280.73V251.951C703.655 250.978 702.865 250.189 701.891 250.189Z" fill="#7F7F7F"/>
<path d="M702.016 257.49C705.007 257.49 707.432 255.067 707.432 252.078C707.432 249.089 705.007 246.666 702.016 246.666C699.025 246.666 696.6 249.089 696.6 252.078C696.6 255.067 699.025 257.49 702.016 257.49Z" fill="#C10505"/>
<path d="M692.823 272.172C691.246 272.172 691.246 289.288 692.823 289.288C694.399 289.288 695.678 285.457 695.678 280.73C695.678 276.003 694.399 272.172 692.823 272.172Z" fill="#427C99"/>
<path d="M645.219 200.933C640.04 200.933 635.848 205.13 635.848 210.306V225.911H654.59V210.306C654.591 205.13 650.395 200.933 645.219 200.933Z" fill="#EDC92C"/>
<path d="M645.219 200.933C640.04 200.933 635.848 205.13 635.848 210.306V225.911H645.513L645.219 200.933Z" fill="#F37C2A"/>
<g>
<path d="M645.219 181C644.292 181 643.54 181.751 643.54 182.678V196.878C643.54 197.804 644.292 198.555 645.219 198.555C646.147 198.555 646.899 197.804 646.899 196.878V182.678C646.899 181.751 646.147 181 645.219 181Z" fill="#F2B42C"/>
<path d="M664.783 187.472C664.127 186.817 663.064 186.817 662.408 187.473L652.359 197.513C651.703 198.168 651.703 199.231 652.359 199.885C653.015 200.541 654.078 200.541 654.734 199.885L664.783 189.845C665.439 189.19 665.439 188.127 664.783 187.472Z" fill="#F2B42C"/>
<path d="M672.1 203.832H657.89C656.962 203.831 656.21 204.583 656.21 205.509C656.21 206.437 656.962 207.188 657.89 207.188H672.1C673.028 207.188 673.78 206.437 673.78 205.509C673.78 204.583 673.027 203.832 672.1 203.832Z" fill="#F2B42C"/>
<path d="M632.424 203.832H618.213C617.285 203.832 616.533 204.582 616.533 205.509C616.533 206.437 617.285 207.188 618.213 207.188H632.424C633.351 207.188 634.103 206.437 634.103 205.509C634.103 204.583 633.351 203.832 632.424 203.832Z" fill="#F2B42C"/>
<path d="M638.205 197.513L628.157 187.473C627.501 186.818 626.438 186.817 625.782 187.473C625.126 188.128 625.126 189.19 625.782 189.846L635.83 199.886C636.486 200.541 637.55 200.542 638.206 199.886C638.861 199.231 638.861 198.168 638.205 197.513Z" fill="#F2B42C"/>
</g>
<path d="M686.786 223.523H603.653C600.334 223.523 597.644 226.212 597.644 229.528V383.779C597.644 387.096 600.334 389.784 603.653 389.784H686.786C690.104 389.784 692.795 387.096 692.795 383.779V229.528C692.795 226.212 690.104 223.523 686.786 223.523Z" fill="#334D5C"/>
<path d="M692.795 293.317H597.644L590 309.095H700.439L692.795 293.317Z" fill="#415E6D"/>
<path d="M590 309.192V385.469C590 389.318 593.123 392.438 596.976 392.438H693.463C697.315 392.438 700.439 389.318 700.439 385.469V309.192H590Z" fill="#334D5C"/>
<g>
<path d="M652.525 237.079H637.913C635.872 237.079 634.217 238.732 634.217 240.772V273.169C634.217 275.209 635.872 276.862 637.913 276.862H652.525C654.567 276.862 656.222 275.209 656.222 273.169V240.771C656.222 238.732 654.567 237.079 652.525 237.079Z" fill="white"/>
<path d="M624.625 237.078H610.013C607.972 237.078 606.317 238.732 606.317 240.772V273.169C606.317 275.209 607.972 276.862 610.013 276.862H624.625C626.667 276.862 628.321 275.209 628.321 273.169V240.771C628.321 238.732 626.667 237.078 624.625 237.078Z" fill="white"/>
<path d="M680.426 237.079H665.814C663.773 237.079 662.117 238.732 662.117 240.772V273.169C662.117 275.209 663.773 276.862 665.814 276.862H680.426C682.468 276.862 684.122 275.209 684.122 273.169V240.771C684.122 238.732 682.468 237.079 680.426 237.079Z" fill="white"/>
</g>
<path d="M681.923 334.071H610.43V370.081H681.923V334.071Z" fill="#1C2D35"/>
<path d="M672.916 356.024H619.521L610.431 370.077H681.925L672.916 356.024Z" fill="black"/>
<path d="M644.685 357.49C638.244 357.49 638.83 358.72 638.83 360.238C638.83 361.756 641.451 362.987 644.685 362.987C647.92 362.987 650.541 361.756 650.541 360.238C650.541 358.72 651.208 357.49 644.685 357.49Z" fill="#DAC425"/>
<path d="M644.685 361.885C647.919 361.885 650.54 360.654 650.54 359.136C650.54 357.619 647.919 356.388 644.685 356.388C641.452 356.388 638.83 357.619 638.83 359.136C638.83 360.654 641.452 361.885 644.685 361.885Z" fill="#F4E028"/>
<path d="M644.685 356.712C641.977 356.712 639.782 357.743 639.782 359.014C639.782 360.285 641.977 361.316 644.685 361.316C647.395 361.316 649.591 360.285 649.591 359.014C649.591 357.743 647.395 356.712 644.685 356.712Z" fill="#F9F29A"/>
<path d="M644.685 356.712C641.977 356.712 639.782 357.743 639.782 359.014C639.782 360.285 641.977 361.316 644.685 361.316C647.395 361.316 649.591 360.285 649.591 359.014C649.591 357.743 647.395 356.712 644.685 356.712Z" stroke="#E1C821" stroke-width="0.235" stroke-miterlimit="10"/>
<path d="M644.296 361.887C643.125 361.868 641.989 361.585 641.989 361.585L641.998 362.676C642.929 363.022 644.314 362.986 644.314 362.986L644.296 361.887Z" fill="#F9F29A"/>
<path d="M645.02 358.674C644.432 358.605 644.011 358.549 644.011 358.342C644.011 358.162 644.325 358.042 644.837 358.042C645.341 358.042 645.838 358.174 646.129 358.349C646.151 358.366 646.54 358.237 646.54 358.058C646.54 357.854 646.075 357.654 645.226 357.607V357.471C645.226 357.283 645.104 357.199 644.791 357.199H644.744C644.44 357.199 644.309 357.287 644.309 357.471V357.619C643.485 357.699 642.965 357.974 642.965 358.358C642.965 358.886 643.851 359.025 644.524 359.101C645.081 359.169 645.555 359.229 645.555 359.448C645.555 359.628 645.242 359.748 644.699 359.748C644.103 359.748 643.538 359.596 643.247 359.413C643.217 359.396 642.85 359.52 642.85 359.692C642.85 359.916 643.377 360.136 644.303 360.187V360.335C644.303 360.523 644.417 360.607 644.738 360.607H644.776C645.081 360.607 645.219 360.519 645.219 360.335V360.179C646.113 360.107 646.649 359.828 646.649 359.424C646.649 358.901 645.723 358.753 645.02 358.674Z" fill="#E1C821"/>
<path d="M636.307 356.247C629.867 356.247 630.452 357.477 630.452 358.994C630.452 360.513 633.072 361.744 636.307 361.744C639.542 361.744 642.163 360.513 642.163 358.994C642.163 357.477 642.829 356.247 636.307 356.247Z" fill="#DAC425"/>
<path d="M636.307 355.148C633.072 355.148 630.452 356.378 630.452 357.896C630.452 359.414 633.072 360.644 636.307 360.644C639.542 360.644 642.163 359.414 642.163 357.896C642.163 356.378 639.542 355.148 636.307 355.148Z" fill="#F4E028"/>
<path d="M636.307 355.469C633.598 355.469 631.403 356.5 631.403 357.772C631.403 359.042 633.598 360.074 636.307 360.074C639.016 360.074 641.21 359.042 641.21 357.772C641.21 356.5 639.016 355.469 636.307 355.469Z" fill="#F9F29A"/>
<path d="M636.307 355.469C633.598 355.469 631.403 356.5 631.403 357.772C631.403 359.042 633.598 360.074 636.307 360.074C639.016 360.074 641.21 359.042 641.21 357.772C641.21 356.5 639.016 355.469 636.307 355.469Z" stroke="#E1C821" stroke-width="0.235" stroke-miterlimit="10"/>
<path d="M635.917 360.644C634.746 360.626 633.609 360.343 633.609 360.343L633.618 361.433C634.55 361.779 635.935 361.744 635.935 361.744L635.917 360.644Z" fill="#F9F29A"/>
<path d="M636.642 357.431C636.054 357.362 635.633 357.307 635.633 357.1C635.633 356.92 635.946 356.799 636.459 356.799C636.963 356.799 637.459 356.931 637.751 357.107C637.773 357.123 638.162 356.995 638.162 356.815C638.162 356.612 637.696 356.411 636.849 356.364V356.228C636.849 356.04 636.726 355.956 636.413 355.956H636.366C636.062 355.956 635.932 356.044 635.932 356.228V356.376C635.105 356.456 634.587 356.731 634.587 357.115C634.587 357.642 635.473 357.782 636.146 357.858C636.703 357.926 637.177 357.986 637.177 358.206C637.177 358.385 636.864 358.506 636.321 358.506C635.725 358.506 635.16 358.354 634.869 358.17C634.839 358.154 634.473 358.278 634.473 358.449C634.473 358.673 634.999 358.893 635.924 358.945V359.092C635.924 359.28 636.039 359.364 636.36 359.364H636.398C636.703 359.364 636.841 359.276 636.841 359.092V358.937C637.734 358.864 638.269 358.585 638.269 358.181C638.268 357.658 637.344 357.51 636.642 357.431Z" fill="#E1C821"/>
<path d="M629.225 357.497C622.784 357.497 623.369 358.727 623.369 360.245C623.369 361.763 625.991 362.994 629.225 362.994C632.459 362.994 635.081 361.763 635.081 360.245C635.081 358.727 635.746 357.497 629.225 357.497Z" fill="#DAC425"/>
<path d="M629.223 361.895C632.457 361.895 635.079 360.664 635.079 359.146C635.079 357.629 632.457 356.398 629.223 356.398C625.988 356.398 623.366 357.629 623.366 359.146C623.366 360.664 625.988 361.895 629.223 361.895Z" fill="#F4E028"/>
<path d="M629.223 361.323C631.932 361.323 634.128 360.292 634.128 359.021C634.128 357.749 631.932 356.718 629.223 356.718C626.514 356.718 624.317 357.749 624.317 359.021C624.317 360.292 626.514 361.323 629.223 361.323Z" fill="#F9F29A"/>
<path d="M629.223 361.323C631.932 361.323 634.128 360.292 634.128 359.021C634.128 357.749 631.932 356.718 629.223 356.718C626.514 356.718 624.317 357.749 624.317 359.021C624.317 360.292 626.514 361.323 629.223 361.323Z" stroke="#E1C821" stroke-width="0.235" stroke-miterlimit="10"/>
<path d="M628.834 361.894C627.664 361.876 626.527 361.592 626.527 361.592L626.537 362.682C627.468 363.029 628.852 362.993 628.852 362.993L628.834 361.894Z" fill="#F9F29A"/>
<path d="M629.559 358.68C628.971 358.612 628.551 358.556 628.551 358.349C628.551 358.169 628.864 358.049 629.376 358.049C629.88 358.049 630.378 358.181 630.668 358.357C630.689 358.373 631.079 358.245 631.079 358.065C631.079 357.861 630.613 357.661 629.765 357.613V357.478C629.765 357.29 629.643 357.206 629.33 357.206H629.283C628.979 357.206 628.848 357.294 628.848 357.478V357.626C628.023 357.705 627.503 357.981 627.503 358.365C627.503 358.892 628.39 359.032 629.063 359.108C629.621 359.176 630.093 359.236 630.093 359.455C630.093 359.635 629.78 359.755 629.238 359.755C628.642 359.755 628.077 359.603 627.787 359.42C627.756 359.404 627.389 359.527 627.389 359.699C627.389 359.923 627.916 360.143 628.841 360.195V360.342C628.841 360.529 628.956 360.613 629.277 360.613H629.315C629.621 360.613 629.758 360.525 629.758 360.342V360.186C630.652 360.114 631.187 359.835 631.187 359.431C631.187 358.908 630.262 358.761 629.559 358.68Z" fill="#E1C821"/>
<path d="M622.194 357.598C615.753 357.598 616.339 358.829 616.339 360.347C616.339 361.865 618.961 363.095 622.194 363.095C625.428 363.095 628.051 361.865 628.051 360.347C628.051 358.829 628.716 357.598 622.194 357.598Z" fill="#DAC425"/>
<path d="M622.194 361.995C625.428 361.995 628.049 360.765 628.049 359.247C628.049 357.729 625.428 356.499 622.194 356.499C618.961 356.499 616.339 357.729 616.339 359.247C616.339 360.765 618.961 361.995 622.194 361.995Z" fill="#F4E028"/>
<path d="M622.194 356.822C619.486 356.822 617.291 357.852 617.291 359.123C617.291 360.394 619.486 361.425 622.194 361.425C624.904 361.425 627.099 360.394 627.099 359.123C627.099 357.852 624.904 356.822 622.194 356.822Z" fill="#F9F29A"/>
<path d="M622.194 356.822C619.486 356.822 617.291 357.852 617.291 359.123C617.291 360.394 619.486 361.425 622.194 361.425C624.904 361.425 627.099 360.394 627.099 359.123C627.099 357.852 624.904 356.822 622.194 356.822Z" stroke="#E1C821" stroke-width="0.235" stroke-miterlimit="10"/>
<path d="M621.804 361.995C620.633 361.978 619.497 361.694 619.497 361.694L619.507 362.784C620.438 363.13 621.823 363.095 621.823 363.095L621.804 361.995Z" fill="#F9F29A"/>
<path d="M622.529 358.782C621.94 358.714 621.521 358.658 621.521 358.451C621.521 358.271 621.834 358.151 622.346 358.151C622.85 358.151 623.348 358.283 623.637 358.458C623.66 358.474 624.05 358.346 624.05 358.166C624.05 357.963 623.584 357.762 622.736 357.715V357.58C622.736 357.392 622.613 357.307 622.3 357.307H622.255C621.949 357.307 621.819 357.396 621.819 357.58V357.728C620.993 357.807 620.474 358.083 620.474 358.467C620.474 358.994 621.361 359.133 622.034 359.21C622.591 359.278 623.065 359.338 623.065 359.557C623.065 359.736 622.751 359.857 622.208 359.857C621.612 359.857 621.048 359.705 620.757 359.521C620.726 359.505 620.36 359.629 620.36 359.801C620.36 360.024 620.887 360.244 621.811 360.296V360.444C621.811 360.631 621.926 360.715 622.247 360.715H622.286C622.591 360.715 622.728 360.627 622.728 360.444V360.288C623.622 360.216 624.158 359.936 624.158 359.533C624.157 359.01 623.232 358.862 622.529 358.782Z" fill="#E1C821"/>
<path d="M671.787 357.436C665.345 357.436 665.932 358.666 665.932 360.183C665.932 361.702 668.553 362.932 671.787 362.932C675.021 362.932 677.643 361.702 677.643 360.183C677.643 358.666 678.309 357.436 671.787 357.436Z" fill="#DAC425"/>
<path d="M671.786 361.834C675.02 361.834 677.641 360.604 677.641 359.086C677.641 357.568 675.02 356.338 671.786 356.338C668.553 356.338 665.931 357.568 665.931 359.086C665.931 360.604 668.553 361.834 671.786 361.834Z" fill="#F4E028"/>
<path d="M671.786 361.262C674.495 361.262 676.69 360.232 676.69 358.96C676.69 357.689 674.495 356.658 671.786 356.658C669.078 356.658 666.883 357.689 666.883 358.96C666.883 360.232 669.078 361.262 671.786 361.262Z" fill="#F9F29A"/>
<path d="M671.786 361.262C674.495 361.262 676.69 360.232 676.69 358.96C676.69 357.689 674.495 356.658 671.786 356.658C669.078 356.658 666.883 357.689 666.883 358.96C666.883 360.232 669.078 361.262 671.786 361.262Z" stroke="#E1C821" stroke-width="0.235" stroke-miterlimit="10"/>
<path d="M671.397 361.832C670.226 361.815 669.09 361.531 669.09 361.531L669.099 362.621C670.031 362.967 671.416 362.932 671.416 362.932L671.397 361.832Z" fill="#F9F29A"/>
<path d="M672.122 358.619C671.534 358.55 671.113 358.494 671.113 358.287C671.113 358.107 671.427 357.987 671.938 357.987C672.443 357.987 672.94 358.119 673.23 358.295C673.253 358.311 673.642 358.183 673.642 358.003C673.642 357.8 673.176 357.599 672.328 357.552V357.416C672.328 357.228 672.206 357.144 671.893 357.144H671.846C671.542 357.144 671.411 357.232 671.411 357.416V357.564C670.587 357.644 670.066 357.919 670.066 358.303C670.066 358.83 670.954 358.97 671.625 359.046C672.183 359.114 672.657 359.174 672.657 359.394C672.657 359.573 672.344 359.694 671.801 359.694C671.205 359.694 670.641 359.542 670.349 359.358C670.318 359.342 669.952 359.466 669.952 359.638C669.952 359.861 670.479 360.081 671.403 360.133V360.28C671.403 360.468 671.519 360.552 671.84 360.552H671.878C672.183 360.552 672.321 360.464 672.321 360.28V360.125C673.216 360.053 673.751 359.773 673.751 359.369C673.75 358.846 672.825 358.699 672.122 358.619Z" fill="#E1C821"/>
<path d="M655.333 355.931C648.892 355.931 649.478 357.161 649.478 358.679C649.478 360.197 652.099 361.427 655.333 361.427C658.567 361.427 661.189 360.197 661.189 358.679C661.189 357.161 661.855 355.931 655.333 355.931Z" fill="#DAC425"/>
<path d="M655.331 360.329C658.565 360.329 661.187 359.098 661.187 357.581C661.187 356.063 658.565 354.833 655.331 354.833C652.097 354.833 649.476 356.063 649.476 357.581C649.476 359.098 652.097 360.329 655.331 360.329Z" fill="#F4E028"/>
<path d="M655.331 359.757C658.04 359.757 660.236 358.726 660.236 357.455C660.236 356.183 658.04 355.153 655.331 355.153C652.623 355.153 650.427 356.183 650.427 357.455C650.427 358.726 652.623 359.757 655.331 359.757Z" fill="#F9F29A"/>
<path d="M655.331 359.757C658.04 359.757 660.236 358.726 660.236 357.455C660.236 356.183 658.04 355.153 655.331 355.153C652.623 355.153 650.427 356.183 650.427 357.455C650.427 358.726 652.623 359.757 655.331 359.757Z" stroke="#E1C821" stroke-width="0.235" stroke-miterlimit="10"/>
<path d="M654.943 360.328C653.772 360.31 652.635 360.026 652.635 360.026L652.645 361.117C653.577 361.463 654.961 361.427 654.961 361.427L654.943 360.328Z" fill="#F9F29A"/>
<path d="M655.667 357.115C655.08 357.046 654.659 356.99 654.659 356.783C654.659 356.604 654.972 356.483 655.485 356.483C655.989 356.483 656.486 356.615 656.777 356.791C656.798 356.807 657.188 356.679 657.188 356.499C657.188 356.296 656.722 356.095 655.874 356.048V355.912C655.874 355.724 655.752 355.64 655.439 355.64H655.393C655.088 355.64 654.958 355.728 654.958 355.912V356.06C654.132 356.139 653.612 356.415 653.612 356.799C653.612 357.326 654.499 357.465 655.172 357.542C655.729 357.61 656.203 357.67 656.203 357.889C656.203 358.069 655.89 358.189 655.347 358.189C654.751 358.189 654.186 358.037 653.895 357.854C653.865 357.838 653.499 357.961 653.499 358.134C653.499 358.357 654.025 358.577 654.949 358.628V358.776C654.949 358.964 655.065 359.048 655.386 359.048H655.424C655.729 359.048 655.867 358.96 655.867 358.776V358.62C656.761 358.548 657.296 358.269 657.296 357.865C657.296 357.342 656.37 357.195 655.667 357.115Z" fill="#E1C821"/>
<path d="M652.915 357.665C646.474 357.665 647.06 358.896 647.06 360.414C647.06 361.932 649.681 363.162 652.915 363.162C656.149 363.162 658.771 361.932 658.771 360.414C658.771 358.896 659.437 357.665 652.915 357.665Z" fill="#DAC425"/>
<path d="M652.913 362.061C656.147 362.061 658.768 360.83 658.768 359.313C658.768 357.795 656.147 356.564 652.913 356.564C649.679 356.564 647.058 357.795 647.058 359.313C647.058 360.83 649.679 362.061 652.913 362.061Z" fill="#F4E028"/>
<path d="M652.913 361.494C655.621 361.494 657.817 360.463 657.817 359.192C657.817 357.92 655.621 356.89 652.913 356.89C650.204 356.89 648.009 357.92 648.009 359.192C648.009 360.463 650.204 361.494 652.913 361.494Z" fill="#F9F29A"/>
<path d="M652.913 361.494C655.621 361.494 657.817 360.463 657.817 359.192C657.817 357.92 655.621 356.89 652.913 356.89C650.204 356.89 648.009 357.92 648.009 359.192C648.009 360.463 650.204 361.494 652.913 361.494Z" stroke="#E1C821" stroke-width="0.235" stroke-miterlimit="10"/>
<path d="M652.525 362.063C651.354 362.045 650.218 361.761 650.218 361.761L650.227 362.852C651.159 363.197 652.545 363.162 652.545 363.162L652.525 362.063Z" fill="#F9F29A"/>
<path d="M653.249 358.849C652.662 358.781 652.241 358.725 652.241 358.518C652.241 358.338 652.554 358.218 653.066 358.218C653.571 358.218 654.068 358.349 654.358 358.525C654.38 358.541 654.769 358.413 654.769 358.233C654.769 358.03 654.304 357.829 653.455 357.782V357.647C653.455 357.459 653.333 357.375 653.02 357.375H652.975C652.67 357.375 652.538 357.463 652.538 357.647V357.795C651.713 357.874 651.193 358.15 651.193 358.534C651.193 359.061 652.081 359.2 652.754 359.277C653.311 359.345 653.785 359.405 653.785 359.624C653.785 359.803 653.472 359.924 652.928 359.924C652.332 359.924 651.767 359.772 651.476 359.588C651.446 359.572 651.081 359.696 651.081 359.868C651.081 360.091 651.607 360.311 652.53 360.363V360.511C652.53 360.698 652.646 360.782 652.967 360.782H653.005C653.311 360.782 653.448 360.694 653.448 360.511V360.355C654.342 360.283 654.877 360.004 654.877 359.6C654.877 359.076 653.953 358.929 653.249 358.849Z" fill="#E1C821"/>
<path d="M662.61 358.227C656.169 358.227 656.754 359.457 656.754 360.974C656.754 362.493 659.375 363.724 662.61 363.724C665.843 363.724 668.465 362.493 668.465 360.974C668.465 359.457 669.132 358.227 662.61 358.227Z" fill="#DAC425"/>
<path d="M662.612 362.625C665.846 362.625 668.467 361.394 668.467 359.876C668.467 358.359 665.846 357.128 662.612 357.128C659.378 357.128 656.756 358.359 656.756 359.876C656.756 361.394 659.378 362.625 662.612 362.625Z" fill="#F4E028"/>
<path d="M662.612 362.053C665.32 362.053 667.516 361.022 667.516 359.751C667.516 358.479 665.32 357.448 662.612 357.448C659.903 357.448 657.707 358.479 657.707 359.751C657.707 361.022 659.903 362.053 662.612 362.053Z" fill="#F9F29A"/>
<path d="M662.612 362.053C665.32 362.053 667.516 361.022 667.516 359.751C667.516 358.479 665.32 357.448 662.612 357.448C659.903 357.448 657.707 358.479 657.707 359.751C657.707 361.022 659.903 362.053 662.612 362.053Z" stroke="#E1C821" stroke-width="0.235" stroke-miterlimit="10"/>
<path d="M662.219 362.624C661.048 362.605 659.911 362.322 659.911 362.322L659.921 363.412C660.853 363.758 662.237 363.723 662.237 363.723L662.219 362.624Z" fill="#F9F29A"/>
<path d="M662.944 359.411C662.355 359.342 661.936 359.286 661.936 359.079C661.936 358.899 662.248 358.779 662.761 358.779C663.265 358.779 663.762 358.911 664.052 359.086C664.075 359.102 664.464 358.975 664.464 358.795C664.464 358.591 663.998 358.391 663.151 358.344V358.208C663.151 358.02 663.029 357.936 662.715 357.936H662.668C662.364 357.936 662.234 358.024 662.234 358.208V358.356C661.408 358.436 660.888 358.711 660.888 359.095C660.888 359.622 661.775 359.762 662.447 359.838C663.005 359.907 663.479 359.966 663.479 360.185C663.479 360.365 663.166 360.486 662.624 360.486C662.027 360.486 661.462 360.333 661.172 360.15C661.141 360.134 660.775 360.258 660.775 360.43C660.775 360.653 661.302 360.873 662.227 360.925V361.073C662.227 361.26 662.34 361.344 662.662 361.344H662.699C663.005 361.344 663.143 361.256 663.143 361.073V360.916C664.036 360.844 664.572 360.565 664.572 360.162C664.571 359.638 663.647 359.49 662.944 359.411Z" fill="#E1C821"/>
<path d="M644.301 362.199C637.86 362.199 638.445 363.43 638.445 364.947C638.445 366.466 641.067 367.696 644.301 367.696C647.535 367.696 650.157 366.466 650.157 364.947C650.157 363.43 650.822 362.199 644.301 362.199Z" fill="#DAC425"/>
<path d="M644.302 366.597C647.536 366.597 650.158 365.366 650.158 363.848C650.158 362.331 647.536 361.1 644.302 361.1C641.068 361.1 638.447 362.331 638.447 363.848C638.447 365.366 641.068 366.597 644.302 366.597Z" fill="#F4E028"/>
<path d="M644.302 366.025C647.01 366.025 649.206 364.994 649.206 363.723C649.206 362.451 647.01 361.42 644.302 361.42C641.594 361.42 639.399 362.451 639.399 363.723C639.399 364.994 641.594 366.025 644.302 366.025Z" fill="#F9F29A"/>
<path d="M644.302 366.025C647.01 366.025 649.206 364.994 649.206 363.723C649.206 362.451 647.01 361.42 644.302 361.42C641.594 361.42 639.399 362.451 639.399 363.723C639.399 364.994 641.594 366.025 644.302 366.025Z" stroke="#E1C821" stroke-width="0.235" stroke-miterlimit="10"/>
<path d="M643.91 366.596C642.74 366.578 641.603 366.295 641.603 366.295L641.612 367.385C642.544 367.731 643.929 367.696 643.929 367.696L643.91 366.596Z" fill="#F9F29A"/>
<path d="M644.636 363.383C644.047 363.314 643.627 363.258 643.627 363.051C643.627 362.871 643.94 362.751 644.452 362.751C644.956 362.751 645.453 362.883 645.743 363.059C645.767 363.075 646.156 362.946 646.156 362.768C646.156 362.564 645.69 362.363 644.842 362.316V362.18C644.842 361.992 644.719 361.908 644.407 361.908H644.36C644.056 361.908 643.925 361.996 643.925 362.18V362.328C643.1 362.408 642.58 362.683 642.58 363.067C642.58 363.594 643.467 363.734 644.139 363.81C644.696 363.878 645.171 363.938 645.171 364.157C645.171 364.337 644.857 364.457 644.315 364.457C643.718 364.457 643.154 364.306 642.862 364.122C642.832 364.106 642.466 364.229 642.466 364.401C642.466 364.625 642.992 364.845 643.917 364.896V365.044C643.917 365.232 644.033 365.316 644.353 365.316H644.392C644.696 365.316 644.834 365.228 644.834 365.044V364.888C645.729 364.816 646.265 364.537 646.265 364.133C646.264 363.61 645.338 363.463 644.636 363.383Z" fill="#E1C821"/>
<path d="M636.109 361.6C629.667 361.6 630.253 362.83 630.253 364.348C630.253 365.866 632.874 367.097 636.109 367.097C639.343 367.097 641.964 365.866 641.964 364.348C641.964 362.83 642.63 361.6 636.109 361.6Z" fill="#DAC425"/>
<path d="M636.11 365.998C639.344 365.998 641.966 364.767 641.966 363.249C641.966 361.732 639.344 360.501 636.11 360.501C632.876 360.501 630.254 361.732 630.254 363.249C630.254 364.767 632.876 365.998 636.11 365.998Z" fill="#F4E028"/>
<path d="M636.11 365.426C638.819 365.426 641.014 364.395 641.014 363.123C641.014 361.852 638.819 360.821 636.11 360.821C633.401 360.821 631.206 361.852 631.206 363.123C631.206 364.395 633.401 365.426 636.11 365.426Z" fill="#F9F29A"/>
<path d="M636.11 365.426C638.819 365.426 641.014 364.395 641.014 363.123C641.014 361.852 638.819 360.821 636.11 360.821C633.401 360.821 631.206 361.852 631.206 363.123C631.206 364.395 633.401 365.426 636.11 365.426Z" stroke="#E1C821" stroke-width="0.235" stroke-miterlimit="10"/>
<path d="M635.718 365.998C634.547 365.98 633.411 365.696 633.411 365.696L633.42 366.786C634.352 367.132 635.736 367.097 635.736 367.097L635.718 365.998Z" fill="#F9F29A"/>
<path d="M636.442 362.784C635.855 362.716 635.435 362.66 635.435 362.453C635.435 362.273 635.747 362.152 636.26 362.152C636.764 362.152 637.261 362.285 637.552 362.46C637.574 362.476 637.963 362.348 637.963 362.168C637.963 361.965 637.498 361.765 636.65 361.717V361.581C636.65 361.394 636.527 361.31 636.214 361.31H636.168C635.863 361.31 635.733 361.398 635.733 361.581V361.729C634.906 361.809 634.388 362.084 634.388 362.468C634.388 362.996 635.274 363.135 635.947 363.212C636.505 363.28 636.978 363.339 636.978 363.559C636.978 363.739 636.665 363.859 636.122 363.859C635.526 363.859 634.961 363.707 634.671 363.523C634.64 363.508 634.274 363.631 634.274 363.803C634.274 364.027 634.8 364.246 635.725 364.298V364.446C635.725 364.634 635.84 364.717 636.161 364.717H636.199C636.505 364.717 636.643 364.629 636.643 364.446V364.29C637.536 364.218 638.071 363.939 638.071 363.535C638.07 363.012 637.145 362.864 636.442 362.784Z" fill="#E1C821"/>
<path d="M627.848 360.694C621.407 360.694 621.992 361.925 621.992 363.443C621.992 364.96 624.613 366.191 627.848 366.191C631.081 366.191 633.703 364.96 633.703 363.443C633.703 361.925 634.369 360.694 627.848 360.694Z" fill="#DAC425"/>
<path d="M627.847 365.091C631.081 365.091 633.703 363.861 633.703 362.343C633.703 360.825 631.081 359.595 627.847 359.595C624.613 359.595 621.991 360.825 621.991 362.343C621.991 363.861 624.613 365.091 627.847 365.091Z" fill="#F4E028"/>
<path d="M627.847 364.519C630.556 364.519 632.752 363.489 632.752 362.217C632.752 360.946 630.556 359.915 627.847 359.915C625.139 359.915 622.943 360.946 622.943 362.217C622.943 363.489 625.139 364.519 627.847 364.519Z" fill="#F9F29A"/>
<path d="M627.847 364.519C630.556 364.519 632.752 363.489 632.752 362.217C632.752 360.946 630.556 359.915 627.847 359.915C625.139 359.915 622.943 360.946 622.943 362.217C622.943 363.489 625.139 364.519 627.847 364.519Z" stroke="#E1C821" stroke-width="0.235" stroke-miterlimit="10"/>
<path d="M627.456 365.092C626.286 365.074 625.149 364.79 625.149 364.79L625.158 365.881C626.09 366.227 627.475 366.191 627.475 366.191L627.456 365.092Z" fill="#F9F29A"/>
<path d="M628.182 361.879C627.594 361.81 627.173 361.754 627.173 361.547C627.173 361.367 627.486 361.247 627.999 361.247C628.503 361.247 629 361.379 629.291 361.555C629.313 361.57 629.701 361.443 629.701 361.263C629.701 361.059 629.236 360.859 628.389 360.812V360.676C628.389 360.488 628.266 360.404 627.953 360.404H627.907C627.602 360.404 627.471 360.492 627.471 360.676V360.824C626.646 360.903 626.126 361.179 626.126 361.563C626.126 362.089 627.012 362.229 627.686 362.306C628.244 362.374 628.717 362.434 628.717 362.653C628.717 362.833 628.404 362.953 627.861 362.953C627.265 362.953 626.7 362.801 626.41 362.618C626.379 362.601 626.012 362.725 626.012 362.897C626.012 363.12 626.539 363.34 627.464 363.392V363.54C627.464 363.728 627.579 363.811 627.9 363.811H627.938C628.244 363.811 628.381 363.724 628.381 363.54V363.384C629.275 363.312 629.81 363.033 629.81 362.629C629.809 362.106 628.884 361.958 628.182 361.879Z" fill="#E1C821"/>
<path d="M621.809 362.307C615.369 362.307 615.954 363.538 615.954 365.056C615.954 366.574 618.576 367.804 621.809 367.804C625.043 367.804 627.666 366.574 627.666 365.056C627.666 363.538 628.331 362.307 621.809 362.307Z" fill="#DAC425"/>
<path d="M621.811 366.707C625.045 366.707 627.666 365.477 627.666 363.959C627.666 362.441 625.045 361.211 621.811 361.211C618.578 361.211 615.956 362.441 615.956 363.959C615.956 365.477 618.578 366.707 621.811 366.707Z" fill="#F4E028"/>
<path d="M621.811 366.135C624.52 366.135 626.716 365.105 626.716 363.833C626.716 362.562 624.52 361.531 621.811 361.531C619.103 361.531 616.907 362.562 616.907 363.833C616.907 365.105 619.103 366.135 621.811 366.135Z" fill="#F9F29A"/>
<path d="M621.811 366.135C624.52 366.135 626.716 365.105 626.716 363.833C626.716 362.562 624.52 361.531 621.811 361.531C619.103 361.531 616.907 362.562 616.907 363.833C616.907 365.105 619.103 366.135 621.811 366.135Z" stroke="#E1C821" stroke-width="0.235" stroke-miterlimit="10"/>
<path d="M621.42 366.705C620.248 366.687 619.112 366.403 619.112 366.403L619.122 367.494C620.053 367.84 621.438 367.804 621.438 367.804L621.42 366.705Z" fill="#F9F29A"/>
<path d="M622.144 363.491C621.555 363.423 621.136 363.367 621.136 363.16C621.136 362.98 621.449 362.86 621.961 362.86C622.465 362.86 622.963 362.992 623.252 363.168C623.275 363.183 623.665 363.055 623.665 362.876C623.665 362.673 623.199 362.472 622.351 362.425V362.288C622.351 362.101 622.228 362.017 621.915 362.017H621.87C621.564 362.017 621.434 362.105 621.434 362.288V362.437C620.608 362.516 620.088 362.792 620.088 363.175C620.088 363.702 620.975 363.842 621.649 363.918C622.206 363.987 622.679 364.047 622.679 364.266C622.679 364.445 622.367 364.566 621.823 364.566C621.227 364.566 620.663 364.414 620.371 364.23C620.341 364.214 619.975 364.338 619.975 364.51C619.975 364.733 620.502 364.953 621.426 365.005V365.153C621.426 365.34 621.541 365.424 621.862 365.424H621.9C622.206 365.424 622.343 365.336 622.343 365.153V364.997C623.238 364.925 623.773 364.645 623.773 364.242C623.772 363.719 622.848 363.571 622.144 363.491Z" fill="#E1C821"/>
<path d="M671.841 362.42C665.399 362.42 665.985 363.651 665.985 365.168C665.985 366.687 668.608 367.917 671.841 367.917C675.075 367.917 677.697 366.687 677.697 365.168C677.697 363.651 678.362 362.42 671.841 362.42Z" fill="#DAC425"/>
<path d="M671.842 366.818C675.076 366.818 677.698 365.588 677.698 364.07C677.698 362.552 675.076 361.322 671.842 361.322C668.608 361.322 665.986 362.552 665.986 364.07C665.986 365.588 668.608 366.818 671.842 366.818Z" fill="#F4E028"/>
<path d="M671.842 366.246C674.55 366.246 676.746 365.215 676.746 363.944C676.746 362.673 674.55 361.642 671.842 361.642C669.133 361.642 666.938 362.673 666.938 363.944C666.938 365.215 669.133 366.246 671.842 366.246Z" fill="#F9F29A"/>
<path d="M671.842 366.246C674.55 366.246 676.746 365.215 676.746 363.944C676.746 362.673 674.55 361.642 671.842 361.642C669.133 361.642 666.938 362.673 666.938 363.944C666.938 365.215 669.133 366.246 671.842 366.246Z" stroke="#E1C821" stroke-width="0.235" stroke-miterlimit="10"/>
<path d="M671.451 366.817C670.28 366.799 669.144 366.515 669.144 366.515L669.153 367.606C670.084 367.952 671.469 367.917 671.469 367.917L671.451 366.817Z" fill="#F9F29A"/>
<path d="M672.176 363.604C671.587 363.535 671.167 363.48 671.167 363.272C671.167 363.093 671.48 362.972 671.992 362.972C672.496 362.972 672.994 363.104 673.284 363.28C673.306 363.296 673.696 363.168 673.696 362.989C673.696 362.785 673.23 362.585 672.382 362.537V362.402C672.382 362.214 672.259 362.13 671.947 362.13H671.9C671.595 362.13 671.465 362.218 671.465 362.402V362.55C670.64 362.629 670.12 362.904 670.12 363.288C670.12 363.816 671.007 363.955 671.679 364.031C672.237 364.1 672.711 364.16 672.711 364.379C672.711 364.558 672.398 364.679 671.854 364.679C671.259 364.679 670.694 364.527 670.403 364.344C670.372 364.327 670.005 364.451 670.005 364.623C670.005 364.847 670.532 365.066 671.458 365.118V365.266C671.458 365.453 671.573 365.537 671.894 365.537H671.932C672.237 365.537 672.374 365.449 672.374 365.266V365.109C673.269 365.038 673.804 364.758 673.804 364.355C673.804 363.831 672.878 363.684 672.176 363.604Z" fill="#E1C821"/>
<path d="M662.663 363.212C656.222 363.212 656.807 364.441 656.807 365.959C656.807 367.478 659.428 368.708 662.663 368.708C665.898 368.708 668.518 367.478 668.518 365.959C668.518 364.442 669.185 363.212 662.663 363.212Z" fill="#DAC425"/>
<path d="M662.662 367.608C665.896 367.608 668.519 366.378 668.519 364.86C668.519 363.342 665.896 362.112 662.662 362.112C659.428 362.112 656.805 363.342 656.805 364.86C656.805 366.378 659.428 367.608 662.662 367.608Z" fill="#F4E028"/>
<path d="M662.662 367.042C665.371 367.042 667.566 366.011 667.566 364.739C667.566 363.468 665.371 362.437 662.662 362.437C659.953 362.437 657.758 363.468 657.758 364.739C657.758 366.011 659.953 367.042 662.662 367.042Z" fill="#F9F29A"/>
<path d="M662.662 367.042C665.371 367.042 667.566 366.011 667.566 364.739C667.566 363.468 665.371 362.437 662.662 362.437C659.953 362.437 657.758 363.468 657.758 364.739C657.758 366.011 659.953 367.042 662.662 367.042Z" stroke="#E1C821" stroke-width="0.235" stroke-miterlimit="10"/>
<path d="M662.273 367.609C661.102 367.591 659.965 367.307 659.965 367.307L659.975 368.398C660.907 368.744 662.292 368.708 662.292 368.708L662.273 367.609Z" fill="#F9F29A"/>
<path d="M662.998 364.396C662.41 364.327 661.989 364.271 661.989 364.064C661.989 363.884 662.302 363.764 662.815 363.764C663.319 363.764 663.816 363.896 664.106 364.071C664.128 364.088 664.517 363.959 664.517 363.779C664.517 363.576 664.051 363.376 663.204 363.328V363.192C663.204 363.005 663.081 362.921 662.768 362.921H662.722C662.417 362.921 662.288 363.009 662.288 363.192V363.341C661.461 363.42 660.942 363.695 660.942 364.079C660.942 364.607 661.829 364.747 662.501 364.823C663.059 364.891 663.532 364.95 663.532 365.17C663.532 365.35 663.219 365.47 662.677 365.47C662.081 365.47 661.516 365.318 661.225 365.134C661.194 365.119 660.828 365.242 660.828 365.414C660.828 365.638 661.355 365.857 662.28 365.909V366.057C662.28 366.245 662.394 366.329 662.715 366.329H662.753C663.059 366.329 663.197 366.24 663.197 366.057V365.901C664.09 365.829 664.626 365.549 664.626 365.146C664.626 364.623 663.7 364.475 662.998 364.396Z" fill="#E1C821"/>
<path d="M655.387 360.916C648.947 360.916 649.532 362.146 649.532 363.664C649.532 365.182 652.153 366.412 655.387 366.412C658.622 366.412 661.243 365.182 661.243 363.664C661.243 362.146 661.909 360.916 655.387 360.916Z" fill="#DAC425"/>
<path d="M655.387 365.313C658.62 365.313 661.242 364.082 661.242 362.565C661.242 361.047 658.62 359.816 655.387 359.816C652.153 359.816 649.532 361.047 649.532 362.565C649.532 364.082 652.153 365.313 655.387 365.313Z" fill="#F4E028"/>
<path d="M655.387 364.741C658.095 364.741 660.29 363.71 660.29 362.439C660.29 361.167 658.095 360.137 655.387 360.137C652.678 360.137 650.483 361.167 650.483 362.439C650.483 363.71 652.678 364.741 655.387 364.741Z" fill="#F9F29A"/>
<path d="M655.387 364.741C658.095 364.741 660.29 363.71 660.29 362.439C660.29 361.167 658.095 360.137 655.387 360.137C652.678 360.137 650.483 361.167 650.483 362.439C650.483 363.71 652.678 364.741 655.387 364.741Z" stroke="#E1C821" stroke-width="0.235" stroke-miterlimit="10"/>
<path d="M654.997 365.313C653.826 365.295 652.69 365.011 652.69 365.011L652.698 366.102C653.631 366.448 655.014 366.412 655.014 366.412L654.997 365.313Z" fill="#F9F29A"/>
<path d="M655.721 362.1C655.134 362.031 654.713 361.975 654.713 361.768C654.713 361.588 655.026 361.468 655.539 361.468C656.043 361.468 656.539 361.6 656.831 361.775C656.852 361.791 657.242 361.664 657.242 361.483C657.242 361.28 656.776 361.08 655.928 361.032V360.896C655.928 360.709 655.805 360.624 655.492 360.624H655.447C655.142 360.624 655.011 360.713 655.011 360.896V361.044C654.186 361.124 653.666 361.399 653.666 361.783C653.666 362.31 654.552 362.45 655.225 362.526C655.783 362.594 656.257 362.654 656.257 362.873C656.257 363.053 655.943 363.173 655.401 363.173C654.804 363.173 654.239 363.022 653.95 362.838C653.919 362.822 653.552 362.945 653.552 363.117C653.552 363.341 654.079 363.561 655.004 363.612V363.76C655.004 363.948 655.119 364.032 655.44 364.032H655.477C655.783 364.032 655.921 363.944 655.921 363.76V363.605C656.815 363.532 657.35 363.253 657.35 362.85C657.35 362.327 656.424 362.18 655.721 362.1Z" fill="#E1C821"/>
<g>
<path d="M649.35 362.529C642.909 362.529 643.495 363.759 643.495 365.278C643.495 366.795 646.116 368.026 649.35 368.026C652.584 368.026 655.206 366.795 655.206 365.278C655.206 363.759 655.872 362.529 649.35 362.529Z" fill="#F4E028"/>
<path d="M649.351 366.929C652.584 366.929 655.206 365.698 655.206 364.181C655.206 362.663 652.584 361.432 649.351 361.432C646.117 361.432 643.496 362.663 643.496 364.181C643.496 365.698 646.117 366.929 649.351 366.929Z" fill="#F4E028"/>
</g>
<path d="M649.351 366.357C652.059 366.357 654.255 365.326 654.255 364.055C654.255 362.783 652.059 361.753 649.351 361.753C646.642 361.753 644.446 362.783 644.446 364.055C644.446 365.326 646.642 366.357 649.351 366.357Z" fill="#F9F29A"/>
<path d="M649.351 366.357C652.059 366.357 654.255 365.326 654.255 364.055C654.255 362.783 652.059 361.753 649.351 361.753C646.642 361.753 644.446 362.783 644.446 364.055C644.446 365.326 646.642 366.357 649.351 366.357Z" stroke="#E1C821" stroke-width="0.235" stroke-miterlimit="10"/>
<path d="M648.96 366.926C647.789 366.908 646.653 366.624 646.653 366.624L646.662 367.715C647.594 368.061 648.979 368.025 648.979 368.025L648.96 366.926Z" fill="#F9F29A"/>
<path d="M649.684 363.713C649.096 363.645 648.675 363.589 648.675 363.381C648.675 363.202 648.988 363.081 649.501 363.081C650.005 363.081 650.502 363.213 650.793 363.389C650.815 363.404 651.205 363.277 651.205 363.097C651.205 362.894 650.738 362.693 649.891 362.646V362.509C649.891 362.322 649.768 362.238 649.455 362.238H649.41C649.104 362.238 648.974 362.326 648.974 362.509V362.658C648.149 362.737 647.629 363.013 647.629 363.396C647.629 363.924 648.515 364.063 649.188 364.139C649.745 364.207 650.22 364.267 650.22 364.487C650.22 364.667 649.906 364.787 649.363 364.787C648.767 364.787 648.202 364.635 647.911 364.451C647.881 364.435 647.515 364.559 647.515 364.731C647.515 364.954 648.042 365.174 648.966 365.226V365.374C648.966 365.562 649.081 365.645 649.402 365.645H649.44C649.745 365.645 649.883 365.557 649.883 365.374V365.218C650.778 365.145 651.313 364.866 651.313 364.463C651.313 363.941 650.388 363.793 649.684 363.713Z" fill="#E1C821"/>
<g id="Slot-Text">
<path d="M623.307 247V248.362L618.116 254.55C619.29 254.697 620.402 255.162 621.332 255.895C622.261 256.628 622.973 257.601 623.39 258.708C623.807 259.816 623.915 261.016 623.7 262.18C623.485 263.344 622.957 264.427 622.172 265.313C621.387 266.198 620.375 266.853 619.245 267.206C618.115 267.559 616.911 267.596 615.761 267.315C614.611 267.034 613.56 266.444 612.721 265.609C611.882 264.774 611.287 263.726 611 262.578L612.94 262.092C613.209 263.156 613.856 264.084 614.761 264.704C615.666 265.324 616.767 265.592 617.855 265.458C618.944 265.324 619.946 264.797 620.674 263.976C621.402 263.155 621.805 262.097 621.807 261C621.807 260.234 621.612 259.48 621.239 258.81C620.866 258.14 620.329 257.577 619.677 257.173C619.025 256.77 618.281 256.539 617.516 256.503C616.75 256.468 615.988 256.629 615.302 256.97L615.074 257.092L614.384 255.885L620.162 249H611.807V247H623.307Z" fill="black"/>
<path d="M647.5 240V260.5H645.5V242.204L641 243.41V241.339L646 240H647.5Z" fill="black"/>
<path d="M677 256V270.5H680V272.5H677V276.5H675V272.5H665V271.398L675 256H677ZM675 270.5V259.671L667.968 270.5H675Z" fill="black"/>
</g>
</g>
<g id="Pi-main">
<path d="M191.479 121.794L206.638 122.914C222.359 105.181 228.535 52.7266 321.175 62.9935C317.807 287.744 218.99 311.451 225.166 357.558C227.412 383.692 248.186 399.746 270.644 400.679C341.575 398.252 338.393 302.864 360.477 62.4335H451.995C447.129 147.182 433.841 231.93 432.344 314.998C433.467 370.252 467.154 399.746 511.51 400.119C584.499 402.546 607.519 317.611 607.519 281.397H591.798C590.301 311.264 575.89 332.731 545.197 334.038C461.54 335.158 507.579 187.316 508.141 63.5535L607.519 64.1135L606.957 0.832418C193.904 -1.16325 246.332 -9.24011 191.479 121.794Z" fill="#0C24A0"/>
<g id="Pi-Digits">
<path d="M199.629 106.294L200.503 106.612L203.365 111.104C203.71 110.449 204.246 109.905 204.915 109.531C205.584 109.157 206.36 108.966 207.16 108.98C207.96 108.993 208.753 109.211 209.454 109.609C210.155 110.007 210.737 110.57 211.138 111.237C211.538 111.905 211.742 112.652 211.727 113.397C211.712 114.143 211.479 114.859 211.053 115.468C210.627 116.077 210.024 116.556 209.309 116.853C208.594 117.151 207.795 117.256 206.996 117.156L207.099 115.904C207.839 115.995 208.573 115.831 209.164 115.445C209.755 115.058 210.162 114.475 210.309 113.805C210.456 113.134 210.332 112.423 209.96 111.804C209.589 111.185 208.996 110.702 208.293 110.444C207.801 110.265 207.275 110.204 206.766 110.266C206.256 110.328 205.78 110.512 205.382 110.801C204.984 111.089 204.677 111.472 204.49 111.913C204.304 112.354 204.244 112.839 204.317 113.321L204.346 113.483L203.424 113.606L200.241 108.607L198.456 113.511L197.172 113.044L199.629 106.294Z" fill="white"/>
<path d="M401.866 7V10.3882L390.113 25.7816C392.771 26.1482 395.289 27.3052 397.394 29.128C399.498 30.9509 401.11 33.3702 402.055 36.1255C402.999 38.8805 403.242 41.8667 402.756 44.762C402.27 47.6574 401.073 50.352 399.296 52.5553C397.518 54.7586 395.227 56.3867 392.669 57.2646C390.11 58.1422 387.383 58.2363 384.78 57.5363C382.177 56.8362 379.797 55.3688 377.898 53.2921C375.998 51.2154 374.65 48.6086 374 45.7523L378.393 44.5434C379.001 47.1892 380.467 49.5 382.516 51.0418C384.566 52.5839 387.057 53.2506 389.522 52.917C391.987 52.5834 394.257 51.2726 395.905 49.2306C397.552 47.1885 398.464 44.5558 398.47 41.8269C398.47 39.9201 398.028 38.0449 397.184 36.3789C396.34 34.713 395.122 33.3114 393.647 32.3074C392.171 31.3032 390.487 30.7298 388.754 30.6412C387.02 30.5527 385.295 30.9522 383.741 31.8017L383.225 32.1052L381.662 29.1026L394.745 11.9753L375.827 11.9753V7L401.866 7Z" fill="white"/>
<path d="M230.258 47.0052L232.051 49.1426L222.754 56.9443L227.81 64.4392C228.422 62.6302 229.59 61.0615 231.148 59.9552C232.704 58.8498 234.571 58.2638 236.481 58.2809C238.39 58.2988 240.246 58.918 241.783 60.0523C243.319 61.1866 244.459 62.7768 245.038 64.5964C245.618 66.4159 245.608 68.3725 245.01 70.1864C244.413 72.0005 243.259 73.5787 241.71 74.6981C240.163 75.8165 238.301 76.4177 236.392 76.4163C234.482 76.4148 232.62 75.8112 231.075 74.6896L232.712 72.4306C233.953 73.326 235.478 73.7385 237.001 73.5894C238.524 73.4403 239.941 72.7394 240.983 71.6204C242.027 70.5006 242.625 69.0389 242.667 67.5088C242.709 65.9787 242.191 64.4863 241.209 63.3121C240.139 62.0366 238.606 61.2385 236.947 61.0934C235.288 60.9484 233.64 61.4685 232.365 62.5383C230.204 64.3516 229.434 66.1608 229.505 67.7245L226.761 67.8737L219.036 56.4211L230.258 47.0052Z" fill="white"/>
<path d="M367.755 7V11.9756L346.014 11.9756L344.322 28.0097C347.246 26.241 350.654 25.4365 354.065 25.7107C357.474 25.9849 360.71 27.3239 363.311 29.5369C365.91 31.7496 367.745 34.7233 368.547 38.0341C369.349 41.3446 369.082 44.8231 367.782 47.9734C366.483 51.1235 364.216 53.785 361.307 55.5777C358.399 57.3707 354.997 58.2036 351.584 57.9578C348.173 57.7118 344.927 56.3997 342.308 54.2087C339.689 52.0174 337.83 49.0591 337 45.7553L341.848 44.5462C342.52 47.1923 344.137 49.5032 346.399 51.0452C348.66 52.5874 351.411 53.2541 354.13 52.9205C356.852 52.5869 359.356 51.276 361.175 49.2338C362.994 47.1915 364.001 44.5587 364.006 41.8295C364.006 38.8603 362.822 36.0127 360.713 33.9133C358.603 31.8138 355.742 30.6343 352.761 30.6343C347.708 30.6343 344.569 32.224 342.865 34.4407L338.929 31.5001L341.516 7L367.755 7Z" fill="white"/>
<path d="M438.755 7V11.9756L417.014 11.9756L415.322 28.0097C418.246 26.241 421.654 25.4365 425.065 25.7107C428.474 25.9849 431.71 27.3239 434.311 29.5369C436.91 31.7496 438.745 34.7233 439.547 38.0341C440.349 41.3446 440.082 44.8231 438.782 47.9734C437.483 51.1235 435.216 53.785 432.307 55.5777C429.399 57.3707 425.997 58.2036 422.584 57.9578C419.173 57.7118 415.927 56.3997 413.308 54.2087C410.689 52.0174 408.83 49.0591 408 45.7553L412.848 44.5462C413.52 47.1923 415.137 49.5032 417.399 51.0452C419.66 52.5874 422.411 53.2541 425.13 52.9205C427.852 52.5869 430.356 51.276 432.175 49.2338C433.994 47.1915 435.001 44.5587 435.006 41.8295C435.006 38.8603 433.822 36.0127 431.713 33.9133C429.603 31.8138 426.742 30.6343 423.761 30.6343C418.708 30.6343 415.569 32.224 413.865 34.4407L409.929 31.5001L412.516 7L438.755 7Z" fill="white"/>
<path d="M241.996 28.5094C243.922 27.3969 246.107 26.8118 248.332 26.813C250.556 26.8151 252.74 27.4034 254.665 28.5186C256.59 29.6339 258.185 31.2376 259.292 33.1668C260.4 35.0961 260.979 37.2829 260.971 39.5072L260.968 63.6168L257.077 65.8634L257.08 48.5915C255.788 49.8293 254.249 50.7789 252.563 51.3777C250.877 51.9765 249.085 52.2108 247.302 52.0655C245.52 51.9202 243.787 51.3989 242.221 50.535C240.655 49.6712 239.289 48.4852 238.215 47.0554C237.141 45.6246 236.382 43.9831 235.989 42.2385C235.596 40.493 235.577 38.6849 235.936 36.9316C236.292 35.1793 237.017 33.5227 238.061 32.0709C239.106 30.619 240.448 29.4048 241.996 28.5094ZM243.942 31.8799C241.931 33.0407 240.463 34.9538 239.862 37.1972C239.26 39.4406 239.575 41.8307 240.736 43.842C241.898 45.8533 243.81 47.321 246.054 47.9221C248.297 48.5231 250.688 48.208 252.698 47.0472C254.709 45.8864 256.177 43.9734 256.779 41.73C257.38 39.4866 257.065 37.0965 255.904 35.0852C254.742 33.0739 252.83 31.6061 250.587 31.0051C248.343 30.4041 245.952 30.7192 243.942 31.8799Z" fill="white"/>
<path d="M203.579 96.4061L216.281 105.3L215.413 106.54L204.077 98.6016L202.871 101.913L201.588 101.015L202.928 97.3355L203.579 96.4061Z" fill="white"/>
<path d="M217.164 68.1642L232.094 83.0937L230.374 84.8132L217.05 71.4888L214.059 76.2358L212.551 74.7275L215.875 69.4538L217.164 68.1642Z" fill="white"/>
<path d="M209.414 81.2644L219.928 88.6263L221.514 86.3619L222.964 87.3774L221.379 89.6418L224.279 91.6727L223.222 93.1823L220.322 91.1514L215.036 98.6994L214.237 98.1399L208.357 82.774L209.414 81.2644ZM218.871 90.1359L211.019 84.6379L215.155 95.4437L218.871 90.1359Z" fill="white"/>
<path d="M287.452 27.3413C287.061 25.1206 285.803 23.1463 283.956 21.8529C282.109 20.5595 279.823 20.0528 277.602 20.4444C275.382 20.836 273.407 22.0937 272.114 23.9409C270.821 25.7881 270.314 28.0735 270.706 30.2942L266.519 31.0325C266.164 29.0226 266.298 26.957 266.907 25.0093C267.517 23.0616 268.585 21.2886 270.022 19.8392C271.458 18.3899 273.222 17.3065 275.165 16.68C277.107 16.0536 279.171 15.9025 281.184 16.2394C283.197 16.5762 285.1 17.3912 286.732 18.6158C288.365 19.8405 289.68 21.4391 290.566 23.2773C291.453 25.1155 291.886 27.1396 291.828 29.1796C291.77 31.2197 291.223 33.2161 290.234 35.0011L278.13 55.9632L296.253 52.7699L296.991 56.9566L271.871 61.3859L271.455 59.0267L286.442 33.0688C287.445 31.3389 287.803 29.3099 287.452 27.3413Z" fill="white"/>
<path d="M322.823 7L311.557 26.1234C315.256 25.2313 319.155 25.6207 322.595 27.2257C326.034 28.8307 328.799 31.5524 330.423 34.929C332.048 38.3058 332.431 42.1293 331.507 45.7509C330.583 49.3729 328.41 52.5695 325.354 54.7991C322.3 57.0287 318.551 58.1536 314.746 57.9831C310.94 57.8124 307.313 56.3569 304.48 53.8634C301.644 51.3698 299.779 47.9917 299.195 44.3024C298.611 40.6131 299.35 36.8396 301.281 33.6225L316.959 7H322.823ZM315.497 30.6368C312.469 30.6368 309.562 31.8164 307.419 33.9161C305.277 36.0158 304.074 38.8637 304.074 41.8332C304.074 44.8027 305.277 47.6506 307.419 49.7503C309.562 51.85 312.469 53.0296 315.497 53.0296C318.525 53.0296 321.432 51.85 323.574 49.7503C325.717 47.6506 326.92 44.8027 326.92 41.8332C326.92 38.8637 325.717 36.0158 323.574 33.9161C321.432 31.8164 318.525 30.6368 315.497 30.6368Z" fill="white"/>
<path d="M461 7C463.828 7.00034 466.583 7.87406 468.882 9.49854C471.181 11.123 472.906 13.4168 473.817 16.0579C474.726 18.699 474.775 21.555 473.958 24.2251C473.138 26.8951 471.494 29.2453 469.251 30.9457C473.898 33.4957 477 38.1343 477 43.4286C477 51.4769 469.837 58 461 58C452.163 58 445 51.4769 445 43.4286C445 38.1319 448.104 33.4957 452.746 30.9433C450.506 29.2424 448.862 26.8922 448.042 24.2224C447.225 21.5525 447.274 18.697 448.185 16.0564C449.096 13.4157 450.822 11.1225 453.118 9.4983C455.417 7.8741 458.174 7.00049 461 7ZM461 33.7143C454.797 33.7143 449.923 38.1537 449.923 43.4286C449.923 48.7034 454.797 53.1429 461 53.1429C467.203 53.1429 472.077 48.7034 472.077 43.4286C472.077 38.1537 467.203 33.7143 461 33.7143ZM461 11.8571C458.716 11.8571 456.525 12.7527 454.908 14.3467C453.293 15.9408 452.385 18.1028 452.385 20.3571C452.385 22.6115 453.293 24.7735 454.908 26.3675C456.525 27.9616 458.716 28.8571 461 28.8571C463.284 28.8571 465.475 27.9616 467.092 26.3675C468.707 24.7735 469.615 22.6115 469.615 20.3571C469.615 18.1028 468.707 15.9408 467.092 14.3467C465.475 12.7527 463.284 11.8571 461 11.8571Z" fill="white"/>
<path d="M497.493 7C500.219 6.9994 502.898 7.71935 505.259 9.08724C507.619 10.4551 509.577 12.4226 510.937 14.7911C512.296 17.1597 513.007 19.8456 513 22.5779C512.993 25.3103 512.268 27.9924 510.896 30.3538L496.116 56H490.609L501.197 37.6277C499.067 38.1509 496.851 38.2157 494.695 37.8175C492.538 37.4192 490.492 36.5676 488.688 35.3181C486.885 34.0687 485.365 32.4502 484.232 30.5692C483.099 28.6884 482.377 26.5881 482.112 24.4069C481.849 22.2256 482.05 20.0132 482.701 17.9155C483.355 15.8178 484.442 13.8825 485.897 12.2375C487.35 10.5925 489.134 9.27507 491.133 8.37226C493.132 7.46943 495.301 7.00172 497.493 7ZM497.493 11.7807C494.647 11.7807 491.916 12.914 489.902 14.9313C487.889 16.9485 486.759 19.6845 486.759 22.5373C486.759 25.3902 487.889 28.1262 489.902 30.1435C491.916 32.1607 494.647 33.294 497.493 33.294C500.338 33.294 503.07 32.1607 505.083 30.1435C507.096 28.1262 508.227 25.3902 508.227 22.5373C508.227 19.6845 507.096 16.9485 505.083 14.9313C503.07 12.914 500.338 11.7807 497.493 11.7807Z" fill="white"/>
<path d="M569.493 7C572.219 6.9994 574.898 7.71935 577.259 9.08724C579.619 10.4551 581.577 12.4226 582.937 14.7911C584.296 17.1597 585.007 19.8456 585 22.5779C584.993 25.3103 584.268 27.9924 582.896 30.3538L568.116 56H562.609L573.197 37.6277C571.067 38.1509 568.851 38.2157 566.695 37.8175C564.538 37.4192 562.492 36.5676 560.688 35.3181C558.885 34.0687 557.365 32.4502 556.232 30.5692C555.099 28.6884 554.377 26.5881 554.112 24.4069C553.849 22.2256 554.05 20.0132 554.701 17.9155C555.355 15.8178 556.442 13.8825 557.897 12.2375C559.35 10.5925 561.134 9.27507 563.133 8.37226C565.132 7.46943 567.301 7.00172 569.493 7ZM569.493 11.7807C566.647 11.7807 563.916 12.914 561.902 14.9313C559.889 16.9485 558.759 19.6845 558.759 22.5373C558.759 25.3902 559.889 28.1262 561.902 30.1435C563.916 32.1607 566.647 33.294 569.493 33.294C572.338 33.294 575.07 32.1607 577.083 30.1435C579.096 28.1262 580.227 25.3902 580.227 22.5373C580.227 19.6845 579.096 16.9485 577.083 14.9313C575.07 12.914 572.338 11.7807 569.493 11.7807Z" fill="white"/>
<path d="M549 7V10.675L529.358 56H524.138L543.246 11.9H518V7H549Z" fill="white"/>
</g>
</g>
<g id="Collision">
<rect x="128.318" y="374.633" width="109.278" height="117.202" fill="#55565A" stroke="#04103D" stroke-width="2"/>
<rect x="239.596" y="452.766" width="36.0952" height="39.0696" fill="#55565A" stroke="#04103D" stroke-width="2"/>
<line y1="-0.5" x2="29.2696" y2="-0.5" transform="matrix(-0.7663 -0.642483 0.643092 -0.765789 229.948 461.556)" stroke="black"/>
<line x1="229.574" y1="470.296" x2="196.491" y2="470.296" stroke="black"/>
<line y1="-0.5" x2="29.2696" y2="-0.5" transform="matrix(-0.7663 0.642483 -0.643092 -0.765789 229.948 478.812)" stroke="black"/>
<line y1="-0.5" x2="29.2696" y2="-0.5" transform="matrix(0.7663 -0.642483 0.643092 0.765789 243.609 461.556)" stroke="black"/>
<line x1="274.687" y1="470.684" x2="241.604" y2="470.684" stroke="black"/>
<line y1="-0.5" x2="29.2696" y2="-0.5" transform="matrix(0.7663 0.642483 -0.643092 0.765789 243.609 478.812)" stroke="black"/>
</g>
<g id="Roman-Boat">
<g id="Boat-Fires">
<g id="Fire">
<path d="M512.981 496.695C512.981 507.169 522.252 515.66 533.689 515.66C545.125 515.66 554.396 507.169 554.396 496.695C554.396 486.16 548.644 477.731 552.503 470.356C552.503 470.356 546.343 471.41 542.892 479.838C542.892 479.838 531.388 469.303 536.194 454.553C536.194 454.553 524.486 458.767 525.71 472.463C526.76 484.208 524.486 486.16 524.486 486.16C524.486 476.678 516.391 472.463 516.391 472.463C518.733 484.053 512.981 487.213 512.981 496.695Z" fill="#FFB446"/>
<path d="M548.636 501.187C548.636 509.075 541.985 515.809 533.374 515.657C525.269 515.514 519.24 509.867 519.884 502.49C520.172 499.198 522.904 493.864 527.362 488.464L530.334 490.111C530.237 483.438 533.689 474.57 533.689 474.57C535.956 483.914 548.636 486.335 548.636 501.187Z" fill="#FFDC64"/>
<path d="M527.937 494.588C526.786 500.91 524.485 503.211 524.485 507.231C524.485 511.445 528.606 515.66 533.689 515.66C538.808 515.66 542.906 511.829 542.892 507.14C542.853 494.548 534.839 488.267 534.839 488.267C535.99 494.588 532.538 497.749 532.538 497.749C531.101 495.774 527.937 494.588 527.937 494.588Z" fill="white"/>
</g>
<g id="Fire_2">
<path d="M403.996 493.38C403.996 501.406 410.508 507.912 418.54 507.912C426.572 507.912 433.084 501.406 433.084 493.38C433.084 485.307 429.044 478.848 431.755 473.197C431.755 473.197 427.428 474.004 425.004 480.463C425.004 480.463 416.924 472.389 420.3 461.086C420.3 461.086 412.076 464.316 412.936 474.811C413.674 483.811 412.076 485.307 412.076 485.307C412.076 478.041 406.391 474.811 406.391 474.811C408.036 483.692 403.996 486.114 403.996 493.38Z" fill="#FFB446"/>
<path d="M429.038 496.822C429.038 502.866 424.367 508.027 418.319 507.91C412.627 507.8 408.392 503.473 408.844 497.82C409.046 495.298 410.965 491.21 414.096 487.073L416.184 488.334C416.116 483.221 418.54 476.426 418.54 476.426C420.132 483.585 429.038 485.441 429.038 496.822Z" fill="#FFDC64"/>
<path d="M414.5 491.765C413.692 496.61 412.076 498.373 412.076 501.454C412.076 504.683 414.97 507.912 418.54 507.912C422.136 507.912 425.014 504.977 425.004 501.384C424.977 491.735 419.348 486.921 419.348 486.921C420.156 491.766 417.732 494.188 417.732 494.188C416.722 492.674 414.5 491.765 414.5 491.765Z" fill="white"/>
</g>
</g>
<g>
<g>
<path d="M494.63 382.076C494.63 382.076 507.03 400.661 507.03 431.636C507.03 462.611 494.63 481.196 494.63 481.196H476.03C476.03 481.196 488.43 462.611 488.43 431.636C488.43 400.661 476.03 382.076 476.03 382.076H494.63Z" fill="#ECF4F7"/>
<path d="M476.03 382.076C476.03 382.076 488.43 400.661 488.43 431.636C488.43 462.611 476.03 481.196 476.03 481.196H457.43C457.43 481.196 469.83 462.611 469.83 431.636C469.83 400.661 457.43 382.076 457.43 382.076H476.03Z" fill="#ECF4F7"/>
<path d="M457.43 382.076C457.43 382.076 469.83 400.661 469.83 431.636C469.83 462.611 457.43 481.196 457.43 481.196H438.829C438.829 481.196 451.229 462.611 451.229 431.636C451.229 400.661 438.829 382.076 438.829 382.076H457.43Z" fill="#ECF4F7"/>
<path d="M513.23 382.076C513.23 382.076 525.63 400.661 525.63 431.636C525.63 462.611 513.23 481.196 513.23 481.196H494.63C494.63 481.196 507.03 462.611 507.03 431.636C507.03 400.661 494.63 382.076 494.63 382.076H513.23Z" fill="#ECF4F7"/>
</g>
<path d="M514.47 523.323C516.95 525.801 516.95 529.518 514.47 531.996C513.85 532.615 511.99 534.474 511.37 535.093L511.06 535.403C509.82 536.022 507.96 536.642 506.1 536.642C504.86 536.332 503.62 535.712 503 534.783C500.52 532.305 500.52 528.588 503 526.11C503.62 525.491 505.48 523.632 506.1 523.013C508.27 520.845 511.99 520.845 514.47 523.323ZM483.47 523.323C485.95 525.801 485.95 529.518 483.47 531.996C482.85 532.615 480.99 534.474 480.37 535.093C479.44 536.022 478.2 536.642 476.96 536.642C475.1 536.332 473.55 536.022 472 535.403C471.69 535.403 471.69 535.094 471.38 535.094C468.9 532.615 468.9 528.898 471.38 526.421C472 525.801 473.86 523.942 474.48 523.323C477.27 520.845 480.99 520.845 483.47 523.323ZM452.469 523.323C454.949 525.801 454.949 529.518 452.469 531.996C451.849 532.615 449.989 534.474 449.369 535.093C448.439 536.022 447.199 536.642 445.959 536.642C444.099 536.332 442.549 536.022 440.999 535.403C440.689 535.403 440.689 535.094 440.379 535.094C437.899 532.615 437.899 528.898 440.379 526.421C440.999 525.801 442.859 523.942 443.479 523.323C446.269 520.845 449.989 520.845 452.469 523.323Z" fill="#ECF4F7"/>
<path d="M417.129 530.757C417.129 530.757 420.229 536.952 429.529 536.952C434.489 536.952 437.589 535.093 439.449 533.545C439.759 534.164 440.069 534.783 440.689 535.093C442.859 537.262 445.959 537.572 448.439 536.023C449.989 536.642 451.849 536.952 454.329 536.952C463.629 536.952 466.729 530.757 466.729 530.757C466.729 530.757 468.279 533.854 472.309 535.713C473.549 536.952 475.409 537.262 477.269 536.952C477.889 536.952 478.509 536.952 479.129 536.952C488.429 536.952 491.529 530.756 491.529 530.756C491.529 530.756 494.629 536.952 503.929 536.952C504.549 536.952 505.169 536.952 506.099 536.952C507.959 537.261 509.819 536.952 511.059 535.713C514.779 533.854 516.329 531.066 516.329 531.066C516.329 531.066 519.429 537.262 528.729 537.262C538.029 537.262 541.129 531.066 541.129 531.066C541.129 531.066 543.609 536.022 551.049 536.952C551.979 536.952 552.599 537.261 553.529 537.261C562.829 537.261 565.929 531.066 565.929 531.066C565.929 531.066 569.029 537.261 578.329 537.261C579.569 537.261 580.499 537.261 581.429 536.952V555.537C580.499 555.846 579.569 555.846 578.329 555.846C569.029 555.846 565.929 549.651 565.929 549.651C565.929 549.651 562.829 555.846 553.529 555.846C544.229 555.846 541.129 549.651 541.129 549.651C541.129 549.651 538.029 555.846 528.729 555.846C519.429 555.846 516.329 549.651 516.329 549.651C516.329 549.651 513.229 555.846 503.929 555.846C494.629 555.846 491.529 549.651 491.529 549.651C491.529 549.651 488.429 555.846 479.129 555.846C469.829 555.846 466.729 549.651 466.729 549.651C466.729 549.651 463.629 555.846 454.329 555.846C445.029 555.846 441.929 549.651 441.929 549.651C441.929 549.651 438.829 555.846 429.529 555.846C420.229 555.846 417.129 549.651 417.129 549.651C417.129 549.651 414.029 555.846 404.729 555.846C403.489 555.846 402.559 555.846 401.629 555.537V536.952C402.559 537.261 403.489 537.261 404.729 537.261C408.759 537.261 411.549 536.022 413.72 534.783C416.199 532.615 417.129 530.757 417.129 530.757Z" fill="#80D6FA"/>
<path d="M417.129 530.757C417.129 530.757 416.199 532.615 413.719 534.474C406.589 529.208 401.939 523.942 401.939 512.172V487.391H411.239C417.439 487.391 417.439 499.781 423.639 499.781H538.34C548.57 499.781 556.94 491.108 556.94 481.196V468.806C556.94 461.992 562.52 456.416 569.34 456.416H581.74V465.709C581.74 468.806 575.539 468.806 575.539 471.904V499.782C575.539 524.252 563.449 530.757 551.049 536.642C543.919 535.713 541.129 530.757 541.129 530.757C541.129 530.757 538.029 536.952 528.729 536.952C519.429 536.952 516.329 530.757 516.329 530.757C516.329 530.757 514.779 533.545 511.059 535.404C511.369 535.404 511.369 535.094 511.369 535.094C511.989 534.474 513.849 532.616 514.469 531.996C516.949 529.518 516.949 525.801 514.469 523.324C511.989 520.845 508.269 520.845 505.789 523.324C505.169 523.943 503.309 525.802 502.689 526.421C500.209 528.899 500.209 532.616 502.689 535.094C503.619 536.023 504.859 536.643 506.099 536.643C505.479 536.643 504.859 536.643 503.929 536.643C494.629 536.643 491.529 530.448 491.529 530.448C491.529 530.448 488.429 536.643 479.129 536.643C478.509 536.643 477.889 536.643 477.269 536.643C478.509 536.333 479.749 536.023 480.679 535.094C481.3 534.474 483.16 532.616 483.779 531.996C486.259 529.518 486.259 525.801 483.779 523.324C481.299 520.845 477.579 520.845 475.099 523.324C474.479 523.943 472.619 525.802 471.999 526.421C469.519 528.899 469.519 532.616 471.999 535.094C472.309 535.404 472.309 535.404 472.62 535.404C468.59 533.545 467.04 530.448 467.04 530.448C467.04 530.448 463.94 536.643 454.64 536.643C452.159 536.643 450.299 536.333 448.75 535.714C449.059 535.404 449.37 535.094 449.68 534.784C450.3 534.165 452.16 532.306 452.779 531.687C455.26 529.209 455.26 525.492 452.779 523.014C450.299 520.536 446.579 520.536 444.1 523.014C443.479 523.634 441.619 525.492 441 526.111C439.14 527.97 438.519 531.067 439.76 533.236C437.9 534.785 434.8 536.643 429.84 536.643C420.229 536.952 417.129 530.757 417.129 530.757Z" fill="#AE938D"/>
</g>
<path d="M578.331 557.086C571.511 557.086 567.791 553.988 565.931 552.13C564.071 554.298 560.351 557.086 553.531 557.086C546.711 557.086 542.991 553.988 541.131 552.13C539.271 554.298 535.551 557.086 528.731 557.086C521.911 557.086 518.191 553.988 516.331 552.13C514.471 554.298 510.751 557.086 503.931 557.086C497.111 557.086 493.391 553.988 491.531 552.13C489.671 554.298 485.951 557.086 479.131 557.086C472.311 557.086 468.591 553.988 466.731 552.13C464.871 554.298 461.151 557.086 454.331 557.086C447.511 557.086 443.791 553.988 441.931 552.13C440.071 554.298 436.351 557.086 429.531 557.086C422.711 557.086 418.991 553.988 417.131 552.13C415.271 554.298 411.551 557.086 404.731 557.086C403.491 557.086 402.561 557.086 401.321 556.776C400.391 556.776 399.77 555.847 400.081 554.918C400.081 553.988 401.011 553.369 401.941 553.679C402.871 553.988 403.801 553.988 404.731 553.988C412.791 553.988 415.581 548.722 415.891 548.722C416.201 548.103 416.511 547.793 417.131 547.793C417.751 547.793 418.371 548.103 418.371 548.722C418.371 549.032 421.161 553.988 429.531 553.988C437.901 553.988 440.381 548.722 440.691 548.722C441.001 548.103 441.621 547.793 441.931 547.793C442.551 547.793 443.171 548.103 443.171 548.722C443.171 549.032 445.961 553.988 454.331 553.988C462.701 553.988 465.181 548.722 465.491 548.722C465.801 548.103 466.421 547.793 466.731 547.793C467.351 547.793 467.971 548.103 467.971 548.722C467.971 549.032 470.761 553.988 479.131 553.988C487.501 553.988 489.981 548.722 490.291 548.722C490.601 548.103 490.911 547.793 491.531 547.793C492.15 547.793 492.771 548.103 492.771 548.722C492.771 549.032 495.561 553.988 503.931 553.988C512.301 553.988 514.781 548.722 515.091 548.722C515.401 548.103 516.021 547.793 516.331 547.793C516.951 547.793 517.571 548.103 517.571 548.722C517.571 549.032 520.361 553.988 528.731 553.988C537.101 553.988 539.581 548.722 539.891 548.722C540.201 548.103 540.821 547.793 541.131 547.793C541.751 547.793 542.371 548.103 542.371 548.722C542.371 549.032 545.161 553.988 553.531 553.988C561.901 553.988 564.381 548.722 564.691 548.722C565.001 548.103 565.621 548.103 565.931 547.793C566.551 547.793 567.171 548.103 567.171 548.722C567.171 549.032 569.961 553.988 578.331 553.988C579.261 553.988 580.191 553.988 581.121 553.679C582.051 553.679 582.671 553.988 582.981 554.918C582.981 555.847 582.671 556.466 581.741 556.776C580.501 557.086 579.57 557.086 578.331 557.086ZM550.43 538.501C549.81 538.501 549.19 538.191 549.19 537.571C548.881 536.952 549.19 536.022 549.811 535.403C562.211 529.208 573.681 523.323 573.681 499.472V471.594C573.681 469.116 575.851 467.877 577.711 467.257C578.951 466.638 579.881 466.018 579.881 465.399V457.655H569.031C563.141 457.655 558.18 462.611 558.18 468.497V480.887C558.18 491.728 548.88 501.021 538.03 501.021H423.329C419.299 501.021 417.439 497.304 415.889 493.896C414.339 490.489 413.099 488.63 410.929 488.63H403.179V511.862C403.179 524.871 408.759 529.208 418.059 535.403C418.679 536.022 418.989 536.952 418.369 537.571C417.749 538.191 416.819 538.5 416.199 537.881C406.279 531.376 400.079 526.11 400.079 511.861V487.081C400.079 486.152 400.699 485.532 401.629 485.532H410.929C414.959 485.532 416.819 489.249 418.369 492.657C419.919 496.064 421.159 497.922 423.329 497.922H474.48V482.435H451.229C450.299 482.435 449.679 481.815 449.679 480.886C449.679 479.957 450.299 479.337 451.229 479.337H456.5C458.669 475.62 468.28 458.274 468.28 431.325C468.28 404.377 458.669 387.032 456.5 383.315H441.619C445.03 389.2 452.78 406.237 452.78 431.327C452.78 462.302 440.689 480.887 440.069 481.816C439.449 482.436 438.519 482.745 437.899 482.126C437.279 481.506 436.969 480.577 437.589 479.958C437.589 479.648 449.68 461.372 449.68 431.327C449.68 401.59 437.899 383.315 437.589 382.696C437.589 382.696 437.589 382.386 437.28 382.386C437.28 382.076 437.28 382.076 437.28 381.766C437.28 381.456 437.28 381.457 437.589 381.147C437.589 380.837 437.899 380.837 437.899 380.527C437.899 380.527 438.209 380.217 438.52 380.217C438.83 380.217 438.829 380.217 439.14 380.217H457.74H474.79V375.88C474.79 374.951 475.41 374.331 476.34 374.331C477.27 374.331 477.89 374.951 477.89 375.88V380.527H494.94H501.14C502.07 380.527 502.69 381.146 502.69 382.076C502.69 383.005 502.07 383.624 501.14 383.624H497.73C501.14 389.51 508.89 406.546 508.89 431.636C508.89 456.726 501.14 473.762 497.73 479.648H512.61C514.78 475.931 524.39 458.585 524.39 431.636C524.39 401.59 512.3 383.005 512.3 383.005C511.68 382.386 511.991 381.456 512.61 380.837C513.23 380.217 514.16 380.527 514.78 381.147C515.4 382.076 527.49 400.351 527.49 431.636C527.49 462.921 515.4 481.197 514.78 482.126C514.47 482.435 514.16 482.745 513.54 482.745H477.89V498.233H538.341C547.641 498.233 555.391 490.489 555.391 481.197V468.807C555.391 461.373 561.901 454.868 569.341 454.868H581.741C582.671 454.868 583.291 455.488 583.291 456.417V465.71C583.291 468.188 581.121 469.427 579.261 470.046C578.021 470.666 577.091 471.285 577.091 471.905V499.782C577.091 525.492 564.071 531.997 551.361 538.192C551.05 538.501 550.74 538.501 550.43 538.501ZM478.82 479.648H493.7C495.87 475.931 505.48 458.584 505.48 431.636C505.48 404.687 495.87 387.341 493.7 383.624H478.82C482.23 389.51 489.98 406.546 489.98 431.636C489.98 456.726 482.23 473.762 478.82 479.648ZM460.22 479.648H475.1C477.27 475.931 486.88 458.584 486.88 431.636C486.88 404.687 477.27 387.341 475.1 383.624H460.22C463.63 389.51 471.38 406.546 471.38 431.636C471.38 456.726 463.629 473.762 460.22 479.648ZM507.03 538.501C505.17 538.501 503 537.881 501.45 536.332C498.35 533.235 498.35 528.279 501.45 525.491L504.55 522.394C507.03 519.915 511.37 519.606 514.16 521.464L524.39 511.242C525.01 510.623 525.94 510.623 526.56 511.242C526.87 511.552 526.87 511.862 526.87 512.481C526.87 513.101 526.87 513.411 526.56 513.72L516.33 523.942C518.19 527.039 517.88 531.066 515.4 533.544L512.3 536.642C511.06 537.881 508.89 538.501 507.03 538.501ZM510.13 523.013C508.89 523.013 507.65 523.633 506.72 524.252L503.62 527.349C501.76 529.208 501.76 531.996 503.62 533.854C505.48 535.713 508.27 535.713 510.13 533.854L513.23 530.757C515.09 528.898 515.09 526.42 513.54 524.562C513.54 524.562 513.23 524.562 513.23 524.252C513.23 523.942 512.92 523.942 512.92 523.942C512.3 523.323 511.37 523.013 510.13 523.013ZM476.03 538.501C474.17 538.501 472 537.881 470.45 536.332C467.35 533.235 467.35 528.279 470.45 525.491L473.55 522.394C476.03 519.915 480.37 519.606 483.16 521.464L493.39 511.242C494.01 510.623 494.94 510.623 495.56 511.242C495.869 511.552 495.869 511.862 495.869 512.481C495.869 513.101 495.869 513.411 495.56 513.72L485.329 523.942C487.189 527.039 486.88 531.066 484.399 533.544L481.3 536.642C480.06 537.881 477.89 538.501 476.03 538.501ZM479.13 523.013C477.89 523.013 476.649 523.633 475.719 524.252L472.62 527.349C470.76 529.208 470.76 531.996 472.62 533.854C474.48 535.713 477.27 535.713 479.13 533.854L482.23 530.757C484.09 528.898 484.09 526.42 482.539 524.562C482.539 524.562 482.23 524.562 482.23 524.252C482.23 523.942 481.92 523.942 481.92 523.942C481.3 523.323 480.37 523.013 479.13 523.013ZM445.029 538.501C443.169 538.501 440.999 537.881 439.449 536.332C436.349 533.235 436.349 528.279 439.449 525.491L442.549 522.394C445.029 519.915 449.369 519.606 452.159 521.464L462.389 511.242C463.009 510.623 463.939 510.623 464.559 511.242C464.869 511.552 464.869 511.862 464.869 512.481C464.869 513.101 464.869 513.411 464.559 513.72L454.329 523.942C456.189 527.039 455.879 531.066 453.399 533.544L450.299 536.642C449.059 537.881 446.889 538.501 445.029 538.501ZM448.129 523.013C446.89 523.013 445.649 523.633 444.719 524.252L441.619 527.349C439.759 529.208 439.759 531.996 441.619 533.854C443.479 535.713 446.269 535.713 448.129 533.854L451.229 530.757C453.089 528.898 453.089 526.42 451.539 524.562C451.539 524.562 451.229 524.562 451.229 524.252C451.229 523.942 450.919 523.942 450.919 523.942C450.299 523.323 449.369 523.013 448.129 523.013Z" fill="#51565F"/>
<g id="Light">
<line y1="-1.75" x2="117.185" y2="-1.75" transform="matrix(-0.73472 -0.678371 0.678961 -0.734174 580.552 530.781)" stroke="#FDD813" stroke-width="3.5"/>
<line y1="-1.75" x2="88.6315" y2="-1.75" transform="matrix(-0.987816 0.155629 -0.155875 -0.987777 582.005 437.492)" stroke="#FDD813" stroke-width="3.5"/>
<line y1="-1.75" x2="90.0672" y2="-1.75" transform="matrix(-0.988203 -0.153149 0.15339 -0.988166 583.459 465.079)" stroke="#FDD813" stroke-width="3.5"/>
<line y1="-1.75" x2="96.6544" y2="-1.75" transform="matrix(-0.890786 -0.454423 0.455005 -0.890489 580.552 495.208)" stroke="#FDD813" stroke-width="3.5"/>
</g>
<g id="Front-Fires">
<g id="Fire_3">
<path d="M486.098 443.963C486.098 449.812 490.843 454.553 496.696 454.553C502.549 454.553 507.294 449.812 507.294 443.963C507.294 438.08 504.35 433.374 506.326 429.256C506.326 429.256 503.173 429.844 501.406 434.551C501.406 434.551 495.519 428.668 497.979 420.431C497.979 420.431 491.986 422.785 492.613 430.432C493.15 436.991 491.986 438.08 491.986 438.08C491.986 432.786 487.843 430.432 487.843 430.432C489.042 436.904 486.098 438.669 486.098 443.963Z" fill="#FFB446"/>
<path d="M504.346 446.471C504.346 450.876 500.942 454.636 496.535 454.551C492.387 454.471 489.301 451.318 489.631 447.199C489.778 445.36 491.177 442.382 493.458 439.367L494.979 440.286C494.93 436.561 496.696 431.609 496.696 431.609C497.857 436.826 504.346 438.178 504.346 446.471Z" fill="#FFDC64"/>
<path d="M493.752 442.787C493.164 446.316 491.986 447.602 491.986 449.846C491.986 452.199 494.095 454.553 496.696 454.553C499.316 454.553 501.414 452.414 501.406 449.796C501.387 442.764 497.285 439.257 497.285 439.257C497.874 442.787 496.108 444.552 496.108 444.552C495.372 443.449 493.752 442.787 493.752 442.787Z" fill="white"/>
</g>
<g id="Fire_4">
<path d="M436.328 472.277C436.328 478.125 441.073 482.866 446.926 482.866C452.779 482.866 457.524 478.125 457.524 472.277C457.524 466.394 454.58 461.687 456.556 457.569C456.556 457.569 453.403 458.157 451.637 462.864C451.637 462.864 445.749 456.981 448.209 448.745C448.209 448.745 442.216 451.098 442.843 458.746C443.38 465.304 442.216 466.394 442.216 466.394C442.216 461.099 438.073 458.746 438.073 458.746C439.272 465.217 436.328 466.982 436.328 472.277Z" fill="#FFB446"/>
<path d="M454.576 474.784C454.576 479.189 451.172 482.949 446.765 482.864C442.617 482.784 439.531 479.631 439.861 475.512C440.008 473.674 441.407 470.695 443.688 467.68L445.209 468.6C445.16 464.874 446.926 459.922 446.926 459.922C448.087 465.139 454.576 466.492 454.576 474.784Z" fill="#FFDC64"/>
<path d="M443.982 471.1C443.394 474.63 442.216 475.915 442.216 478.16C442.216 480.513 444.325 482.866 446.926 482.866C449.546 482.866 451.644 480.727 451.636 478.109C451.617 471.077 447.515 467.57 447.515 467.57C448.104 471.1 446.338 472.865 446.338 472.865C445.602 471.762 443.982 471.1 443.982 471.1Z" fill="white"/>
</g>
<g id="Fire_5">
<path d="M497.724 389.152C497.724 395 502.468 399.741 508.321 399.741C514.174 399.741 518.919 395 518.919 389.152C518.919 383.269 515.975 378.562 517.951 374.444C517.951 374.444 514.798 375.032 513.032 379.739C513.032 379.739 507.144 373.856 509.604 365.62C509.604 365.62 503.611 367.973 504.238 375.621C504.775 382.179 503.611 383.269 503.611 383.269C503.611 377.974 499.468 375.621 499.468 375.621C500.667 382.092 497.724 383.857 497.724 389.152Z" fill="#FFB446"/>
<path d="M515.971 391.659C515.971 396.064 512.568 399.824 508.16 399.739C504.012 399.659 500.926 396.506 501.256 392.387C501.403 390.549 502.802 387.57 505.083 384.555L506.604 385.475C506.555 381.749 508.321 376.797 508.321 376.797C509.482 382.014 515.971 383.367 515.971 391.659Z" fill="#FFDC64"/>
<path d="M505.378 387.975C504.789 391.505 503.611 392.79 503.611 395.034C503.611 397.388 505.72 399.741 508.321 399.741C510.942 399.741 513.039 397.602 513.032 394.984C513.012 387.952 508.91 384.445 508.91 384.445C509.499 387.975 507.733 389.74 507.733 389.74C506.997 388.637 505.378 387.975 505.378 387.975Z" fill="white"/>
</g>
<g id="Fire_6">
<path d="M464.665 465.906C464.665 470.261 468.198 473.791 472.557 473.791C476.915 473.791 480.449 470.261 480.449 465.906C480.449 461.525 478.257 458.02 479.727 454.953C479.727 454.953 477.38 455.391 476.064 458.896C476.064 458.896 471.68 454.515 473.512 448.382C473.512 448.382 469.049 450.134 469.516 455.829C469.916 460.713 469.049 461.525 469.049 461.525C469.049 457.582 465.964 455.829 465.964 455.829C466.857 460.648 464.665 461.963 464.665 465.906Z" fill="#FFB446"/>
<path d="M478.253 467.773C478.253 471.053 475.719 473.853 472.437 473.79C469.348 473.731 467.05 471.382 467.295 468.315C467.405 466.946 468.446 464.728 470.145 462.483L471.278 463.167C471.241 460.393 472.557 456.706 472.557 456.706C473.421 460.591 478.253 461.598 478.253 467.773Z" fill="#FFDC64"/>
<path d="M470.364 465.029C469.926 467.658 469.049 468.615 469.049 470.286C469.049 472.039 470.62 473.791 472.557 473.791C474.508 473.791 476.07 472.198 476.064 470.249C476.05 465.013 472.995 462.401 472.995 462.401C473.434 465.029 472.118 466.344 472.118 466.344C471.57 465.523 470.364 465.029 470.364 465.029Z" fill="white"/>
</g>
<g id="Fire_7">
<path d="M448.68 408.24C448.68 412.968 452.516 416.802 457.249 416.802C461.981 416.802 465.817 412.968 465.817 408.24C465.817 403.483 463.437 399.678 465.034 396.349C465.034 396.349 462.485 396.824 461.057 400.63C461.057 400.63 456.297 395.873 458.285 389.214C458.285 389.214 453.44 391.117 453.947 397.3C454.382 402.602 453.44 403.483 453.44 403.483C453.44 399.203 450.091 397.3 450.091 397.3C451.06 402.532 448.68 403.959 448.68 408.24Z" fill="#FFB446"/>
<path d="M463.434 410.268C463.434 413.829 460.682 416.869 457.118 416.8C453.765 416.736 451.27 414.186 451.536 410.856C451.655 409.37 452.786 406.962 454.631 404.524L455.86 405.267C455.821 402.255 457.249 398.251 457.249 398.251C458.187 402.469 463.434 403.563 463.434 410.268Z" fill="#FFDC64"/>
<path d="M454.868 407.289C454.392 410.143 453.44 411.182 453.44 412.996C453.44 414.899 455.145 416.802 457.249 416.802C459.367 416.802 461.063 415.072 461.057 412.955C461.041 407.271 457.725 404.435 457.725 404.435C458.201 407.289 456.773 408.716 456.773 408.716C456.178 407.824 454.868 407.289 454.868 407.289Z" fill="white"/>
</g>
</g>
</g>
<g id="Ramanujan-Number">
<path d="M361.108 224L368.119 243.264L366.24 243.948L359.982 226.755L356.166 229.427L355.458 227.481L359.698 224.513L361.108 224Z" fill="#3E2896"/>
<path d="M385.929 220L386.086 221.492L379.827 240.751L377.65 240.98L383.738 222.241L373.209 223.348L373 221.359L385.929 220Z" fill="#3E2896"/>
<path d="M404.461 227.012C404.572 225.957 404.259 224.901 403.591 224.077C402.924 223.252 401.956 222.727 400.901 222.616C399.846 222.505 398.79 222.818 397.966 223.485C397.141 224.153 396.616 225.121 396.505 226.176L394.516 225.967C394.616 225.012 394.944 224.095 395.472 223.293C396.001 222.492 396.713 221.828 397.551 221.359C398.389 220.89 399.327 220.629 400.287 220.598C401.246 220.566 402.199 220.765 403.066 221.179C403.932 221.592 404.687 222.207 405.267 222.973C405.846 223.738 406.234 224.632 406.396 225.578C406.559 226.524 406.492 227.496 406.201 228.411C405.91 229.326 405.404 230.158 404.726 230.837L396.534 238.747L405.143 239.653L404.934 241.642L393 240.387L393.118 239.267L403.261 229.471C403.939 228.819 404.364 227.948 404.461 227.012Z" fill="#3E2896"/>
<path d="M425.114 225.221C426.189 225.612 427.141 226.279 427.875 227.155C428.609 228.032 429.099 229.086 429.296 230.212C429.492 231.338 429.388 232.496 428.995 233.569C428.601 234.642 427.931 235.592 427.053 236.324L417.561 244.287L415.391 243.497L422.191 237.793C421.278 237.693 420.395 237.401 419.603 236.935C418.81 236.469 418.126 235.841 417.594 235.091C417.062 234.342 416.696 233.488 416.518 232.586C416.341 231.684 416.357 230.754 416.565 229.859C416.773 228.964 417.169 228.123 417.726 227.392C418.283 226.661 418.989 226.056 419.797 225.618C420.605 225.179 421.496 224.917 422.413 224.849C423.33 224.781 424.25 224.908 425.114 225.221ZM424.43 227.101C423.309 226.693 422.071 226.747 420.989 227.251C419.908 227.755 419.071 228.669 418.663 229.79C418.254 230.912 418.308 232.15 418.813 233.231C419.317 234.313 420.231 235.15 421.352 235.558C422.474 235.966 423.711 235.912 424.793 235.408C425.875 234.903 426.712 233.99 427.12 232.868C427.528 231.747 427.474 230.509 426.97 229.428C426.465 228.346 425.552 227.509 424.43 227.101Z" fill="#3E2896"/>
</g>
</g>
</svg>
