<svg width="300" height="300" viewBox="0 0 300 300" fill="none" xmlns="http://www.w3.org/2000/svg">
<g id="Sorting-svg">
<g id="Col-0">
<path d="M20.3789 284.723C20.3789 287.262 19.9453 289.148 19.0781 290.383C18.2109 291.617 16.8555 292.234 15.0117 292.234C13.1914 292.234 11.8438 291.633 10.9688 290.43C10.0938 289.219 9.64063 287.414 9.60938 285.016V282.121C9.60938 279.613 10.043 277.75 10.9102 276.531C11.7773 275.312 13.1367 274.703 14.9883 274.703C16.8242 274.703 18.1758 275.293 19.043 276.473C19.9102 277.645 20.3555 279.457 20.3789 281.91V284.723ZM18.2109 281.758C18.2109 279.922 17.9531 278.586 17.4375 277.75C16.9219 276.906 16.1055 276.484 14.9883 276.484C13.8789 276.484 13.0703 276.902 12.5625 277.738C12.0547 278.574 11.793 279.859 11.7773 281.594V285.062C11.7773 286.906 12.043 288.27 12.5742 289.152C13.1133 290.027 13.9258 290.465 15.0117 290.465C16.082 290.465 16.875 290.051 17.3906 289.223C17.9141 288.395 18.1875 287.09 18.2109 285.309V281.758Z" fill="black"/>
<line x1="30" y1="299" y2="299" stroke="#647CFB" stroke-width="2"/>
</g>
<g id="Col-1">
<rect x="30" y="270" width="30" height="30" fill="#052CFC"/>
<path d="M46.8047 262H44.625V247.551L40.2539 249.156V247.188L46.4648 244.855H46.8047V262Z" fill="black"/>
</g>
<g id="Col-2">
<rect x="60" y="240" width="30" height="60" fill="#647CFB"/>
<path d="M80.8594 232H69.6797V230.441L75.5859 223.879C76.4609 222.887 77.0625 222.082 77.3906 221.465C77.7266 220.84 77.8945 220.195 77.8945 219.531C77.8945 218.641 77.625 217.91 77.0859 217.34C76.5469 216.77 75.8281 216.484 74.9297 216.484C73.8516 216.484 73.0117 216.793 72.4102 217.41C71.8164 218.02 71.5195 218.871 71.5195 219.965H69.3516C69.3516 218.395 69.8555 217.125 70.8633 216.156C71.8789 215.188 73.2344 214.703 74.9297 214.703C76.5156 214.703 77.7695 215.121 78.6914 215.957C79.6133 216.785 80.0742 217.891 80.0742 219.273C80.0742 220.953 79.0039 222.953 76.8633 225.273L72.293 230.23H80.8594V232Z" fill="black"/>
</g>
<g id="Col-3">
<rect x="90" y="210" width="30" height="90" fill="#052CFC"/>
<path d="M102.832 192.414H104.461C105.484 192.398 106.289 192.129 106.875 191.605C107.461 191.082 107.754 190.375 107.754 189.484C107.754 187.484 106.758 186.484 104.766 186.484C103.828 186.484 103.078 186.754 102.516 187.293C101.961 187.824 101.684 188.531 101.684 189.414H99.5156C99.5156 188.062 100.008 186.941 100.992 186.051C101.984 185.152 103.242 184.703 104.766 184.703C106.375 184.703 107.637 185.129 108.551 185.98C109.465 186.832 109.922 188.016 109.922 189.531C109.922 190.273 109.68 190.992 109.195 191.688C108.719 192.383 108.066 192.902 107.238 193.246C108.176 193.543 108.898 194.035 109.406 194.723C109.922 195.41 110.18 196.25 110.18 197.242C110.18 198.773 109.68 199.988 108.68 200.887C107.68 201.785 106.379 202.234 104.777 202.234C103.176 202.234 101.871 201.801 100.863 200.934C99.8633 200.066 99.3633 198.922 99.3633 197.5H101.543C101.543 198.398 101.836 199.117 102.422 199.656C103.008 200.195 103.793 200.465 104.777 200.465C105.824 200.465 106.625 200.191 107.18 199.645C107.734 199.098 108.012 198.312 108.012 197.289C108.012 196.297 107.707 195.535 107.098 195.004C106.488 194.473 105.609 194.199 104.461 194.184H102.832V192.414Z" fill="black"/>
</g>
<g id="Col-5">
<rect x="120" y="150" width="30" height="150" fill="#052CFC"/>
<path d="M130.676 133.445L131.543 124.938H140.285V126.941H133.383L132.867 131.594C133.703 131.102 134.652 130.855 135.715 130.855C137.27 130.855 138.504 131.371 139.418 132.402C140.332 133.426 140.789 134.812 140.789 136.562C140.789 138.32 140.312 139.707 139.359 140.723C138.414 141.73 137.09 142.234 135.387 142.234C133.879 142.234 132.648 141.816 131.695 140.98C130.742 140.145 130.199 138.988 130.066 137.512H132.117C132.25 138.488 132.598 139.227 133.16 139.727C133.723 140.219 134.465 140.465 135.387 140.465C136.395 140.465 137.184 140.121 137.754 139.434C138.332 138.746 138.621 137.797 138.621 136.586C138.621 135.445 138.309 134.531 137.684 133.844C137.066 133.148 136.242 132.801 135.211 132.801C134.266 132.801 133.523 133.008 132.984 133.422L132.41 133.891L130.676 133.445Z" fill="black"/>
</g>
<g id="Col-4">
<rect x="150" y="180" width="30" height="120" fill="#647CFB"/>
<path d="M168.832 166.27H171.199V168.039H168.832V172H166.652V168.039H158.883V166.762L166.523 154.938H168.832V166.27ZM161.344 166.27H166.652V157.902L166.395 158.371L161.344 166.27Z" fill="black"/>
</g>
<g id="Col-6">
<rect x="180" y="120" width="30" height="180" fill="#647CFB"/>
<path d="M198.188 94.9258V96.7656H197.789C196.102 96.7969 194.758 97.2969 193.758 98.2656C192.758 99.2344 192.18 100.598 192.023 102.355C192.922 101.324 194.148 100.809 195.703 100.809C197.188 100.809 198.371 101.332 199.254 102.379C200.145 103.426 200.59 104.777 200.59 106.434C200.59 108.191 200.109 109.598 199.148 110.652C198.195 111.707 196.914 112.234 195.305 112.234C193.672 112.234 192.348 111.609 191.332 110.359C190.316 109.102 189.809 107.484 189.809 105.508V104.676C189.809 101.535 190.477 99.1367 191.812 97.4805C193.156 95.8164 195.152 94.9648 197.801 94.9258H198.188ZM195.34 102.613C194.598 102.613 193.914 102.836 193.289 103.281C192.664 103.727 192.23 104.285 191.988 104.957V105.754C191.988 107.16 192.305 108.293 192.938 109.152C193.57 110.012 194.359 110.441 195.305 110.441C196.281 110.441 197.047 110.082 197.602 109.363C198.164 108.645 198.445 107.703 198.445 106.539C198.445 105.367 198.16 104.422 197.59 103.703C197.027 102.977 196.277 102.613 195.34 102.613Z" fill="black"/>
</g>
<g id="Col-7">
<rect x="210" y="90" width="30" height="210" fill="#052CFC"/>
<path d="M230.695 66.1562L223.629 82H221.355L228.398 66.7188H219.164V64.9375H230.695V66.1562Z" fill="black"/>
</g>
<g id="Col-9">
<rect x="240" y="30" width="30" height="270" fill="#052CFC"/>
<path d="M257.988 14.5C257.535 15.0391 256.992 15.4727 256.359 15.8008C255.734 16.1289 255.047 16.293 254.297 16.293C253.312 16.293 252.453 16.0508 251.719 15.5664C250.992 15.082 250.43 14.4023 250.031 13.5273C249.633 12.6445 249.434 11.6719 249.434 10.6094C249.434 9.46875 249.648 8.44141 250.078 7.52734C250.516 6.61328 251.133 5.91406 251.93 5.42969C252.727 4.94531 253.656 4.70312 254.719 4.70312C256.406 4.70312 257.734 5.33594 258.703 6.60156C259.68 7.85937 260.168 9.57812 260.168 11.7578V12.3906C260.168 15.7109 259.512 18.1367 258.199 19.668C256.887 21.1914 254.906 21.9727 252.258 22.0117H251.836V20.1836H252.293C254.082 20.1523 255.457 19.6875 256.418 18.7891C257.379 17.8828 257.902 16.4531 257.988 14.5ZM254.648 14.5C255.375 14.5 256.043 14.2773 256.652 13.832C257.27 13.3867 257.719 12.8359 258 12.1797V11.3125C258 9.89062 257.691 8.73438 257.074 7.84375C256.457 6.95312 255.676 6.50781 254.73 6.50781C253.777 6.50781 253.012 6.875 252.434 7.60938C251.855 8.33594 251.566 9.29688 251.566 10.4922C251.566 11.6562 251.844 12.6172 252.398 13.375C252.961 14.125 253.711 14.5 254.648 14.5Z" fill="black"/>
</g>
<g id="Col-8">
<rect x="270" y="60" width="30" height="240" fill="#647CFB"/>
<path d="M290.027 39.3906C290.027 40.2422 289.801 41 289.348 41.6641C288.902 42.3281 288.297 42.8477 287.531 43.2227C288.422 43.6055 289.125 44.1641 289.641 44.8984C290.164 45.6328 290.426 46.4648 290.426 47.3945C290.426 48.8711 289.926 50.0469 288.926 50.9219C287.934 51.7969 286.625 52.2344 285 52.2344C283.359 52.2344 282.043 51.7969 281.051 50.9219C280.066 50.0391 279.574 48.8633 279.574 47.3945C279.574 46.4727 279.824 45.6406 280.324 44.8984C280.832 44.1562 281.531 43.5938 282.422 43.2109C281.664 42.8359 281.066 42.3164 280.629 41.6523C280.191 40.9883 279.973 40.2344 279.973 39.3906C279.973 37.9531 280.434 36.8125 281.355 35.9688C282.277 35.125 283.492 34.7031 285 34.7031C286.5 34.7031 287.711 35.125 288.633 35.9688C289.562 36.8125 290.027 37.9531 290.027 39.3906ZM288.258 47.3477C288.258 46.3945 287.953 45.6172 287.344 45.0156C286.742 44.4141 285.953 44.1133 284.977 44.1133C284 44.1133 283.215 44.4102 282.621 45.0039C282.035 45.5977 281.742 46.3789 281.742 47.3477C281.742 48.3164 282.027 49.0781 282.598 49.6328C283.176 50.1875 283.977 50.4648 285 50.4648C286.016 50.4648 286.812 50.1875 287.391 49.6328C287.969 49.0703 288.258 48.3086 288.258 47.3477ZM285 36.4844C284.148 36.4844 283.457 36.75 282.926 37.2812C282.402 37.8047 282.141 38.5195 282.141 39.4258C282.141 40.293 282.398 40.9961 282.914 41.5352C283.438 42.0664 284.133 42.332 285 42.332C285.867 42.332 286.559 42.0664 287.074 41.5352C287.598 40.9961 287.859 40.293 287.859 39.4258C287.859 38.5586 287.59 37.8516 287.051 37.3047C286.512 36.7578 285.828 36.4844 285 36.4844Z" fill="black"/>
</g>
</g>
</svg>
