<svg width="1005" height="727" viewBox="0 0 1005 727" fill="none" xmlns="http://www.w3.org/2000/svg">
<rect width="1005" height="696" fill="#141313"/>
<rect y="696" width="1005" height="31" fill="#108615"/>
<path d="M607.249 515.435L621.024 538.538C628.475 551.029 634.86 560.929 635.394 560.815C635.403 560.814 635.41 560.808 635.416 560.801C635.893 560.158 642.246 508.425 642.246 508.425L674.417 501.587L659.643 622.929L637.282 627.682C637.282 627.682 598.764 563.824 598.806 563.541L588.415 637.161L566.28 641.866L504.015 537.379L536.034 530.594C536.034 530.594 564.137 576.577 564.371 576.527C564.372 576.527 564.372 576.526 564.373 576.525L571.301 523.075L607.249 515.435L607.249 515.435ZM491.42 531.87L497.143 541.474L559.408 645.961L562.34 650.883L567.944 649.691L590.079 644.986L595.555 643.822L596.337 638.279L603.552 587.162C605.965 591.182 608.569 595.514 611.173 599.842C620.8 615.845 630.432 631.814 630.432 631.814L633.375 636.691L638.946 635.507L661.307 630.754L666.894 629.567L667.584 623.896L682.359 502.555L683.713 491.432L672.754 493.762L640.582 500.6L635.001 501.786L634.305 507.451C633.192 516.515 631.7 528.483 630.404 538.619C629.602 537.294 628.764 535.899 627.893 534.439L614.12 511.337L611.188 506.419L605.586 507.609L569.639 515.25L564.097 516.428L563.368 522.047L559.32 553.278C553.924 544.502 547.657 534.27 542.86 526.422L539.911 521.596L534.376 522.768L502.357 529.552L491.42 531.87Z" fill="#FFE81F"/>
<path d="M936.258 369.758L936.183 400.063C936.183 400.063 903.54 399.954 886.944 399.954C881.423 399.954 877.678 399.967 877.5 399.999C874.64 400.52 872.819 406.601 873.63 409.27C874.029 410.62 877.021 415.03 880.26 419.08C883.489 423.131 888.8 429.761 892.04 433.809C900.359 444.19 901.5 446.239 902.269 452.2C903.519 461.881 898.94 472.36 890.44 479.27C881.922 486.2 882.295 486.249 819.057 486.249C818.141 486.249 817.222 486.249 816.28 486.249C777.82 486.239 757.48 485.92 754.519 485.26C749.259 484.07 740.879 477.23 718.729 455.98C710.762 448.344 703.42 441.658 703.043 441.656C703.033 441.656 703.028 441.662 703.028 441.672L702.767 486.251L666.868 486.092L666.647 371.112H711.918H746.708C770.838 371.983 787.168 396.022 783.918 411.352C783.178 414.831 781.298 419.873 779.737 422.552C776.527 428.052 768.357 435.112 761.726 438.143C759.277 439.251 757.277 440.541 757.277 441.001C757.277 442.711 765.338 450.65 768.357 451.911C770.936 452.99 778.447 453.23 811.567 453.23C815.449 453.23 818.975 453.232 822.175 453.232C855.468 453.232 853.793 452.992 856.365 447.491C858.166 443.661 856.796 441.371 844.126 427.101C828.075 411.13 829.756 403.48 829.646 397.83C829.417 391.06 834.748 369.761 862.458 369.761L936.258 369.758ZM721.188 422.878C736.558 422.878 739.678 422.639 742.949 421.218C753.989 416.418 754.579 402.239 743.989 395.947C741.67 394.566 738.689 394.338 722.029 394.247L702.75 394.146C702.909 394.296 702.689 421.716 702.689 421.716C702.689 421.716 707.518 422.878 721.188 422.878ZM944.277 361.758H936.256H862.456C846.424 361.758 836.941 368.086 831.81 373.395C823.463 382.028 821.497 392.899 821.648 398.024C821.656 398.451 821.651 398.889 821.646 399.346C821.573 407.675 822.8 417.104 838.305 432.592C841.37 436.044 846.498 441.831 848.436 444.707C844.198 445.228 833.456 445.228 822.174 445.228H817.382L811.566 445.226C791.662 445.226 774.878 445.169 771.438 444.49C770.957 444.176 770.282 443.636 769.54 442.992C776.417 438.757 783.37 432.193 786.644 426.58C788.631 423.167 790.822 417.337 791.742 413.012C793.782 403.387 790.417 391.776 782.741 381.944C773.785 370.473 760.756 363.61 746.995 363.114L746.85 363.108H746.705H711.915H666.644H658.628L658.644 371.125L658.865 486.104L658.881 494.053L666.83 494.088L702.729 494.247L710.717 494.282L710.764 486.294L710.919 459.588C711.652 460.284 712.41 461.007 713.188 461.753C737.415 484.993 745.547 491.432 752.75 493.061C754.729 493.502 758.003 494.233 816.273 494.249H819.052C850.598 494.249 866.432 494.249 875.851 493.339C886.64 492.296 890.11 489.849 895.312 485.614L895.485 485.473C906.17 476.786 911.808 463.643 910.2 451.173C909.152 443.063 907.006 439.694 898.278 428.805L895.684 425.565C892.644 421.766 888.971 417.178 886.509 414.09C884.523 411.606 882.963 409.401 882.022 407.957C883.258 407.954 884.863 407.952 886.94 407.952C903.335 407.952 935.827 408.06 936.153 408.062L944.161 408.088L944.181 400.08L944.256 369.774L944.277 361.758ZM710.739 414.586C710.752 412.565 710.764 410.299 710.777 408.029C710.787 406.029 710.796 404.025 710.799 402.189L721.986 402.247C728.415 402.282 738.089 402.335 739.975 402.87C742.382 404.331 743.725 406.59 743.579 408.93C743.499 410.194 742.897 412.518 739.758 413.881C738.008 414.641 735.218 414.878 721.188 414.878C716.738 414.878 713.305 414.749 710.739 414.586Z" fill="#FFE81F"/>
<path d="M593.908 369.287L634.198 485.207L601.368 485.357L595.918 467.947L537.218 467.476L532.038 484.907L499.538 484.566L539.318 369.337L593.908 369.287ZM567.507 386.283C567.424 386.616 562.363 400.502 557.285 414.387C552.165 428.387 547.028 442.387 546.957 442.496C546.957 442.497 546.956 442.497 546.957 442.497C546.957 442.497 546.957 442.497 546.957 442.496C547.093 442.456 565.273 442.416 576.925 442.416C582.378 442.416 586.4 442.425 586.475 442.445C586.476 442.449 586.476 442.45 586.476 442.45C586.476 442.45 586.476 442.449 586.476 442.447C586.476 442.447 586.476 442.447 586.475 442.445C586.271 441.916 567.566 386.959 567.507 386.283C567.508 386.279 567.508 386.277 567.508 386.277C567.507 386.277 567.507 386.279 567.507 386.283ZM599.595 361.282L593.902 361.287L539.312 361.338L533.616 361.343L531.757 366.729L491.977 481.958L488.354 492.452L499.456 492.567L531.956 492.908L537.989 492.971L539.708 487.189L543.174 475.527L590.028 475.902L593.736 487.75L595.501 493.388L601.408 493.362L634.237 493.212L645.432 493.16L641.756 482.586L601.466 366.666L599.595 361.282ZM558.472 434.424C559.987 430.295 562.028 424.714 564.799 417.135C565.668 414.759 566.463 412.584 567.192 410.59C567.855 412.546 568.577 414.674 569.361 416.988C570.007 418.894 572.846 427.258 575.281 434.416C568.041 434.416 562.591 434.417 558.472 434.424Z" fill="#FFE81F"/>
<path d="M607.488 230.928V259.528H550.208V346.998H516.058V259.458L449.198 259.648C441.138 259.648 440.058 266.068 440.058 268.528C440.058 271.548 442.028 274.568 452.848 288.268C459.868 297.168 466.318 306.048 467.168 307.988C471.808 318.668 465.808 335.308 454.878 342.068C447.088 346.881 448.419 346.999 390.57 346.999C387.596 346.999 384.474 346.999 381.178 346.999H318.908V314.869H416.808L419.698 312.859C421.648 311.499 422.778 309.629 423.208 307.069C423.808 303.389 423.498 302.909 411.408 289.289C397.118 273.189 395.608 270.249 396.348 259.969C397.188 248.239 407.648 231.199 425.928 231.199L607.488 230.928ZM615.488 222.916L607.475 222.928L425.915 223.198C415.457 223.198 405.744 227.716 398.573 235.92C392.759 242.572 388.943 251.349 388.367 259.397C387.394 272.908 390.504 277.79 405.423 294.599C409.753 299.476 413.87 304.115 415.244 306.085C415.222 306.164 415.202 306.215 415.19 306.244C415.175 306.256 415.152 306.274 415.12 306.296L414.298 306.868H318.908H310.908V314.868V346.998V354.998H318.908H381.178H386.115H390.57C419.092 354.998 433.17 354.971 441.464 354.363C450.954 353.668 453.982 352.04 458.518 349.223L459.084 348.872C473.346 340.051 480.696 319.045 474.506 304.798C472.596 300.44 460.503 285.052 459.13 283.312C455.334 278.505 449.068 270.572 448.076 268.276C448.1 268.083 448.147 267.883 448.197 267.744C448.362 267.702 448.678 267.646 449.198 267.646L508.058 267.479V346.996V354.996H516.058H550.208H558.208V346.996V267.526H607.488H615.488V259.526V230.926V222.916V222.916Z" fill="#FFE81F"/>
<path d="M700.548 231.857L740.728 348.077L707.958 347.897L702.638 330.487L644.199 330.227L638.978 346.997H605.609L645.348 231.857H700.548V231.857ZM653.737 305.478L693.538 305.428C693.539 305.428 693.539 305.429 693.539 305.429C693.675 305.429 674.197 248.228 674.067 248.188C673.925 248.183 653.288 305.478 653.737 305.478ZM706.247 223.857H700.548H645.348H639.647L637.787 229.247L598.047 344.388L594.385 354.998H605.61H638.98H644.869L646.619 349.375L650.08 338.254L696.712 338.461L700.311 350.235L702.032 355.864L707.919 355.897L740.689 356.077L751.986 356.139L748.295 345.463L708.115 229.243L706.247 223.857ZM664.851 297.464C667.319 290.437 670.755 280.807 673.865 272.152C676.813 280.796 680.074 290.397 682.453 297.442L664.851 297.464Z" fill="#FFE81F"/>
<path d="M813.396 231.857C839.317 231.857 857.306 232.227 860.766 232.827C868.766 234.217 875.996 238.487 881.416 245.047C887.086 251.907 888.386 255.187 889.126 264.587C890.187 277.857 883.876 289.307 871.426 296.737C867.796 298.907 864.067 301.017 863.136 301.437C861.706 302.087 861.897 302.707 864.456 305.707C866.105 307.637 868.966 310.387 870.806 311.817L874.166 314.427L936.246 315.317L936.855 346.997H898.794C869.355 346.997 859.934 346.727 857.174 345.797C853.044 344.397 843.105 335.977 822.903 316.757L808.483 303.037L808.635 346.997H771.592V231.857H813.396ZM807.938 283.627H827.609C846.75 283.627 847.348 283.567 850.079 281.517C854.96 277.857 856.688 274.087 856.17 268.297C855.64 262.327 853.34 259.217 847.569 256.717C844.319 255.297 841.188 255.067 825.848 255.067H807.938V283.627V283.627ZM813.396 223.857H771.596H763.596V231.857V346.997V354.997H771.596H808.639H816.667L816.639 346.969L816.551 321.753L817.391 322.552C842.377 346.325 849.747 351.725 854.609 353.373C858.342 354.632 864.591 354.997 898.797 354.997H936.858H945.012L944.856 346.843L944.247 315.163L944.099 307.429L936.365 307.318L876.963 306.467L875.718 305.5C875.322 305.191 874.842 304.783 874.329 304.321C874.775 304.057 875.183 303.814 875.536 303.604C890.539 294.651 898.402 280.197 897.105 263.951C896.242 252.992 894.285 248.055 887.585 239.951C881.001 231.982 871.964 226.653 862.138 224.946C856.678 223.999 829.257 223.857 813.396 223.857ZM815.938 263.067H825.848C839.875 263.067 842.654 263.3 844.366 264.048C847.616 265.456 847.946 266.139 848.201 269.005C848.457 271.853 848.104 272.999 845.279 275.117C845.186 275.186 845.115 275.24 845.056 275.283C843.191 275.628 836.27 275.628 827.609 275.628H815.939L815.938 263.067Z" fill="#FFE81F"/>
<path d="M672.877 217.78C677.227 217.78 680.754 214.253 680.754 209.903V104.877C680.754 100.527 677.227 97 672.877 97C668.527 97 665 100.527 665 104.877V209.903C665 214.253 668.527 217.78 672.877 217.78Z" fill="#88888F"/>
<path d="M691.758 220.379C691.758 210.245 683.512 202 673.379 202C663.246 202 655 210.246 655 220.379C655 224.729 658.527 228.256 662.877 228.256C667.227 228.256 670.754 224.729 670.754 220.379C670.754 218.932 671.932 217.753 673.38 217.753C674.828 217.753 676.006 218.931 676.006 220.379C676.006 224.729 679.533 228.256 683.883 228.256C688.233 228.256 691.758 224.729 691.758 220.379Z" fill="#EDEDED"/>
<path d="M292 147.513H722.605C722.605 118.511 699.094 95 670.092 95H292V147.513V147.513Z" fill="#F6E27D"/>
<path d="M152.394 95.026H330.938V147.539H152.394V95.026Z" fill="#EFC27B"/>
<path d="M207 284.16V221.111C207 221.108 207 221.104 207 221.101V158.047C207 153.694 210.536 150.165 214.9 150.165H278.1C282.464 150.165 286 153.694 286 158.047V221.101C286 221.103 286 221.104 286 221.106C286 221.108 286 221.109 286 221.111V284.159C286 284.161 286 284.162 286 284.164C286 284.166 286 284.167 286 284.169V347.217C286 347.219 286 347.22 286 347.222C286 347.224 286 347.225 286 347.227V410.283C286 414.636 282.464 418.165 278.1 418.165H214.9C210.536 418.165 207 414.636 207 410.283V347.229C207 347.226 207 347.222 207 347.218V284.169C207 284.167 207 284.163 207 284.16ZM235.328 252.635L222.8 240.135V265.134L235.328 252.635ZM226.073 284.165L246.5 304.548L266.928 284.165L246.5 263.783L226.073 284.165ZM246.5 241.488L266.928 221.106L246.5 200.723L226.073 221.105L246.5 241.488ZM222.8 202.075L235.328 189.575L222.8 177.076V202.075ZM246.5 178.43L259.028 165.929H233.974L246.5 178.43ZM257.672 189.576L270.201 202.077V177.078L257.672 189.576ZM257.672 252.635L270.201 265.136V240.136L257.672 252.635ZM257.672 315.694L270.201 328.195V303.195L257.672 315.694ZM246.5 326.843L226.073 347.225L246.5 367.608L266.928 347.225L246.5 326.843ZM257.672 378.754L270.201 391.254V366.255L257.672 378.754ZM246.5 389.901L233.973 402.401H259.026L246.5 389.901ZM235.328 378.754L222.8 366.254V391.252L235.328 378.754ZM235.328 315.694L222.8 303.194V328.193L235.328 315.694Z" fill="#EFC27B"/>
<path d="M207 535.995V472.946C207 472.943 207 472.939 207 472.936V409.882C207 405.529 210.536 402 214.9 402H278.1C282.464 402 286 405.529 286 409.882V472.936C286 472.938 286 472.939 286 472.941C286 472.943 286 472.944 286 472.946V535.994C286 535.996 286 535.997 286 535.999C286 536.001 286 536.002 286 536.004V599.052C286 599.054 286 599.055 286 599.057C286 599.059 286 599.06 286 599.062V662.118C286 666.471 282.464 670 278.1 670H214.9C210.536 670 207 666.471 207 662.118V599.064C207 599.061 207 599.057 207 599.053V536.004C207 536.002 207 535.998 207 535.995ZM235.328 504.47L222.8 491.97V516.969L235.328 504.47ZM226.073 536L246.5 556.383L266.928 536L246.5 515.618L226.073 536ZM246.5 493.323L266.928 472.941L246.5 452.558L226.073 472.94L246.5 493.323ZM222.8 453.91L235.328 441.41L222.8 428.911V453.91ZM246.5 430.265L259.028 417.764H233.974L246.5 430.265ZM257.672 441.411L270.201 453.912V428.913L257.672 441.411ZM257.672 504.47L270.201 516.971V491.971L257.672 504.47ZM257.672 567.529L270.201 580.03V555.03L257.672 567.529ZM246.5 578.678L226.073 599.06L246.5 619.443L266.928 599.06L246.5 578.678ZM257.672 630.589L270.201 643.089V618.09L257.672 630.589ZM246.5 641.736L233.973 654.236H259.026L246.5 641.736ZM235.328 630.589L222.8 618.089V643.087L235.328 630.589ZM235.328 567.529L222.8 555.029V580.028L235.328 567.529Z" fill="#EFC27B"/>
<path d="M330.041 695.522H162L183.006 643.01H309.036L330.041 695.522Z" fill="#F6E27D"/>
<path d="M194 127H299.026V169.01H194V127Z" fill="#F6E27D"/>
<path d="M78.876 74.021H162.897V179.047H78.876V74.021Z" fill="#DBDBDB"/>
<path d="M78.877 155.415H162.898C167.249 155.415 170.775 151.888 170.775 147.538C170.775 143.188 167.249 139.661 162.898 139.661H78.877C74.526 139.661 71 143.188 71 147.538C71 151.888 74.526 155.415 78.877 155.415Z" fill="#CCCCCE"/>
<path d="M278.426 84.522L257.421 21.508H215.41V105.528H278.426V84.522Z" fill="#F6E27D"/>
<path d="M351.944 129.159H509.482C513.832 129.159 517.359 125.632 517.359 121.282C517.359 116.932 513.832 113.405 509.482 113.405H351.944C347.594 113.405 344.067 116.932 344.067 121.282C344.067 125.632 347.593 129.159 351.944 129.159Z" fill="#F8E99B"/>
<path d="M510.877 128.754H668.415C672.765 128.754 676.292 125.227 676.292 120.877C676.292 116.527 672.765 113 668.415 113H510.877C506.527 113 503 116.527 503 120.877C503 125.227 506.526 128.754 510.877 128.754Z" fill="#F8E99B"/>
<path d="M141.876 703.754H351.928C356.278 703.754 359.805 700.227 359.805 695.877C359.805 691.527 356.278 688 351.928 688H141.877C137.526 688 134 691.527 134 695.877C134 700.227 137.525 703.754 141.876 703.754Z" fill="#88888F"/>
<path d="M140.877 688H329.923V703.754H140.877C136.526 703.754 133 700.227 133 695.877C133 691.527 136.526 688 140.877 688Z" fill="#797781"/>
<path d="M399.603 683.765H667.221C672.695 683.765 677.132 679.327 677.132 673.853V663.941H399.603V683.765Z" fill="#5C546A"/>
<path d="M450.464 665.548L504.979 606.078C505.917 605.052 507.243 604.471 508.632 604.471H682.088C687.552 604.471 692 608.918 692 614.382V654.029C692 664.962 683.109 673.853 672.176 673.853H454.118C452.153 673.853 450.372 672.691 449.583 670.891C448.789 669.095 449.138 666.995 450.464 665.548Z" fill="#E7001E"/>
<path d="M391.099 604.471L431.072 596.698L444.355 559.718C448.329 550.776 457.215 545 467.001 545H498.721C506.919 545 513.588 551.669 513.588 559.868V644.118C513.588 660.515 500.25 673.853 483.853 673.853H389.691C381.493 673.853 374.824 667.184 374.824 658.985V619.338C374.824 609.755 381.667 606.188 391.099 604.471Z" fill="#FF4F19"/>
<path d="M374.824 634.206H392.169C396.274 634.206 399.603 630.877 399.603 626.772C399.603 622.667 396.274 619.338 392.169 619.338H374.824" fill="#FFD100"/>
<path d="M692 649.074C683.789 649.074 677.132 642.417 677.132 634.206V619.338C677.132 616.601 679.351 614.382 682.088 614.382H692V649.074Z" fill="#FF4F19"/>
<path d="M622.617 713.5C603.458 713.5 587.926 697.968 587.926 678.809C587.926 659.649 603.458 644.118 622.617 644.118C641.776 644.118 657.308 659.649 657.308 678.809C657.308 697.968 641.776 713.5 622.617 713.5Z" fill="#5C546A"/>
<path d="M622.617 698.632C611.669 698.632 602.794 689.757 602.794 678.809C602.794 667.861 611.669 658.985 622.617 658.985C633.565 658.985 642.441 667.861 642.441 678.809C642.441 689.757 633.565 698.632 622.617 698.632Z" fill="#8A8895"/>
<path d="M424.382 713.5C405.223 713.5 389.691 697.968 389.691 678.809C389.691 659.649 405.223 644.118 424.382 644.118C443.542 644.118 459.074 659.649 459.074 678.809C459.074 697.968 443.542 713.5 424.382 713.5Z" fill="#5C546A"/>
<path d="M424.382 698.632C413.434 698.632 404.559 689.757 404.559 678.809C404.559 667.861 413.434 658.985 424.382 658.985C435.331 658.985 444.206 667.861 444.206 678.809C444.206 689.757 435.331 698.632 424.382 698.632Z" fill="#8A8895"/>
<path d="M444.356 559.718C445.13 557.975 446.139 556.395 447.257 554.912H498.721V586.786C498.721 592.26 494.283 596.698 488.809 596.698H431.072L444.356 559.718Z" fill="#5C546A"/>
<path d="M374.824 619.338H384.735V634.206H374.824V619.338Z" fill="white"/>
<circle cx="34" cy="315" r="1" fill="#F8F0F0"/>
<circle cx="794" cy="28" r="1" fill="#F8F0F0"/>
<circle cx="811.75" cy="79.75" r="1.75" fill="#F8F0F0"/>
<circle cx="913.75" cy="266.75" r="1.75" fill="#F8F0F0"/>
<circle cx="572.75" cy="299.75" r="1.75" fill="#F8F0F0"/>
<circle cx="464.75" cy="431.75" r="1.75" fill="#F8F0F0"/>
<circle cx="162.75" cy="217.75" r="1.75" fill="#F8F0F0"/>
<circle cx="31.75" cy="636.75" r="1.75" fill="#F8F0F0"/>
<circle cx="64.75" cy="488.75" r="1.75" fill="#F8F0F0"/>
<circle cx="133.75" cy="601.75" r="1.75" fill="#F8F0F0"/>
<circle cx="913.75" cy="618.75" r="1.75" fill="#F8F0F0"/>
<circle cx="724.75" cy="618.75" r="1.75" fill="#F8F0F0"/>
<circle cx="741.75" cy="215.75" r="1.75" fill="#F8F0F0"/>
<circle cx="77.75" cy="245.75" r="1.75" fill="#F8F0F0"/>
<circle cx="177.75" cy="407.75" r="1.75" fill="#F8F0F0"/>
<circle cx="430.75" cy="378.75" r="1.75" fill="#F8F0F0"/>
<circle cx="312.75" cy="517.75" r="1.75" fill="#F8F0F0"/>
<circle cx="825.75" cy="514.75" r="1.75" fill="#F8F0F0"/>
<circle cx="168.75" cy="41.75" r="1.75" fill="#F8F0F0"/>
<circle cx="584.75" cy="195.75" r="1.75" fill="#F8F0F0"/>
<circle cx="300" cy="387" r="1" fill="#F8F0F0"/>
<circle cx="703" cy="10" r="1" fill="#F8F0F0"/>
<circle cx="925" cy="42" r="1" fill="#F8F0F0"/>
<circle cx="895" cy="495" r="1" fill="#F8F0F0"/>
<circle cx="411" cy="504" r="1" fill="#F8F0F0"/>
<circle cx="879" cy="158" r="1" fill="#F8F0F0"/>
<circle cx="21" cy="229" r="1" fill="#F8F0F0"/>
<circle cx="972" cy="410" r="1" fill="#F8F0F0"/>
<circle cx="13" cy="521" r="1" fill="#F8F0F0"/>
<circle cx="946" cy="650" r="1" fill="#F8F0F0"/>
<circle cx="247" cy="478" r="1" fill="#F8F0F0"/>
<circle cx="380" cy="180" r="1" fill="#F8F0F0"/>
<circle cx="479" cy="284" r="1" fill="#F8F0F0"/>
<circle cx="588" cy="42" r="1" fill="#F8F0F0"/>
<circle cx="691" cy="65" r="1" fill="#F8F0F0"/>
<circle cx="868" cy="82" r="1" fill="#F8F0F0"/>
<circle cx="809" cy="389" r="1" fill="#F8F0F0"/>
<circle cx="188" cy="512" r="1" fill="#F8F0F0"/>
<circle cx="343" cy="29" r="1" fill="#F8F0F0"/>
<circle cx="121" cy="45" r="1" fill="#F8F0F0"/>
<circle cx="255" cy="224" r="1" fill="#F8F0F0"/>
<circle cx="178" cy="329" r="1" fill="#F8F0F0"/>
<circle cx="445" cy="58" r="1" fill="#F8F0F0"/>
<circle cx="958" cy="94" r="1" fill="#F8F0F0"/>
<circle cx="791" cy="122" r="1" fill="#F8F0F0"/>
<circle cx="944" cy="194" r="1" fill="#F8F0F0"/>
<circle cx="927" cy="554" r="1" fill="#F8F0F0"/>
<circle cx="753" cy="675" r="1" fill="#F8F0F0"/>
<circle cx="734" cy="537" r="1" fill="#F8F0F0"/>
<circle cx="835" cy="605" r="1" fill="#F8F0F0"/>
<circle cx="329" cy="609" r="1" fill="#F8F0F0"/>
<circle cx="492" cy="185" r="1" fill="#F8F0F0"/>
<circle cx="641" cy="408" r="1" fill="#F8F0F0"/>
<circle cx="399" cy="511" r="1" fill="#F8F0F0"/>
<circle cx="443" cy="408" r="1" fill="#F8F0F0"/>
<circle cx="35" cy="130" r="1" fill="#F8F0F0"/>
<circle cx="353" cy="245" r="1" fill="#F8F0F0"/>
<circle cx="361" cy="447" r="1" fill="#F8F0F0"/>
<circle cx="74" cy="577" r="1" fill="#F8F0F0"/>
<circle cx="152" cy="254" r="1" fill="#F8F0F0"/>
<circle cx="121" cy="445" r="1" fill="#F8F0F0"/>
<circle cx="51" cy="418" r="1" fill="#F8F0F0"/>
<circle cx="95" cy="363" r="1" fill="#F8F0F0"/>
<circle cx="72" cy="288" r="1" fill="#F8F0F0"/>
</svg>
